<?xml version="1.0" standalone="no"?>
<!DOCTYPE svg PUBLIC "-//W3C//DTD SVG 1.1//EN" "http://www.w3.org/Graphics/SVG/1.1/DTD/svg11.dtd" >
<svg>
<metadata>
Created by FontForge 20120731 at Sun Apr 24 16:43:20 2016
 By ,,,
Copyright (c) 2014 by Jason Smith, Fontsmith Ltd. All rights reserved.
</metadata>
<defs>
<font id="FSAlbertArabic-Bold" horiz-adv-x="0" >
  <font-face 
    font-family="FS Albert Arabic"
    font-weight="700"
    font-stretch="normal"
    units-per-em="1000"
    panose-1="2 11 8 3 4 5 2 2 8 4"
    ascent="800"
    descent="-200"
    bbox="-143.5 -549.45 1389 1075.25"
    underline-thickness="50"
    underline-position="-50"
    unicode-range="U+060C-FEFC"
  />
<missing-glyph horiz-adv-x="535" 
d="M20 0v693h495v-693h-495zM268 391l168 253h-337zM297 347l169 -253v505zM99 50h337l-168 252zM70 599v-505l168 253z" />
    <glyph glyph-name="uniFEF5" unicode="&#xfedf;&#xfe82;" horiz-adv-x="654" arabic-form="isolated" 
d="M392 110h37q29 0 38.5 10t9.5 41v519q0 21 19 24l72 10q10 1 15.5 -4.5t5.5 -16.5v-568q0 -125 -149 -125h-371q-24 0 -24 25v60q0 25 24 25h207l-114 404q-7 27 18 35l53 18q27 9 35 -20zM120 737q28 0 64 -19q42 -19 62 -19q23 0 41 24q9 10 15 1l20 -24q7 -9 0 -18
q-35 -52 -76 -52q-28 0 -64 19q-42 20 -63 20q-23 0 -41 -24q-9 -10 -15 -1l-20 23q-7 9 0 19q31 51 77 51z" />
    <glyph glyph-name="uniFEF6" unicode="&#xfee0;&#xfe82;" horiz-adv-x="699" arabic-form="final" 
d="M392 110h37q29 0 38.5 10t9.5 41v519q0 21 19 24l72 10q10 1 15.5 -4.5t5.5 -16.5v-554q32 -29 104 -29h6v-110h-6q-84 0 -123 50q-33 -50 -130 -50h-371q-24 0 -24 25v60q0 25 24 25h207l-114 404q-7 27 18 35l53 18q27 9 35 -20zM120 737q28 0 64 -19q42 -19 62 -19
q23 0 41 24q9 10 15 1l20 -24q7 -9 0 -18q-35 -52 -76 -52q-28 0 -64 19q-42 20 -63 20q-23 0 -41 -24q-9 -10 -15 -1l-20 23q-7 9 0 19q31 51 77 51z" />
    <glyph glyph-name="uniFEF7" unicode="&#xfedf;&#xfe84;" horiz-adv-x="654" arabic-form="isolated" 
d="M392 110h37q29 0 38.5 10t9.5 41v519q0 21 19 24l72 10q10 1 15.5 -4.5t5.5 -16.5v-568q0 -125 -149 -125h-371q-24 0 -24 25v60q0 25 24 25h207l-114 404q-7 27 18 35l53 18q27 9 35 -20zM86 702h29q-18 26 -18 58q0 41 29 66.5t72 25.5q42 0 78 -23q14 -10 7 -21
l-10 -25q-6 -14 -17 -7q-28 14 -51 14q-19 0 -31 -12t-12 -32q0 -22 16 -44h102q14 0 14 -14v-34q0 -14 -14 -14h-194q-14 0 -14 15v33q0 14 14 14z" />
    <glyph glyph-name="uniFEF8" unicode="&#xfee0;&#xfe84;" horiz-adv-x="699" arabic-form="final" 
d="M392 110h37q29 0 38.5 10t9.5 41v519q0 21 19 24l72 10q10 1 15.5 -4.5t5.5 -16.5v-554q32 -29 104 -29h6v-110h-6q-84 0 -123 50q-33 -50 -130 -50h-371q-24 0 -24 25v60q0 25 24 25h207l-114 404q-7 27 18 35l53 18q27 9 35 -20zM86 702h29q-18 26 -18 58q0 41 29 66.5
t72 25.5q42 0 78 -23q14 -10 7 -21l-10 -25q-6 -14 -17 -7q-28 14 -51 14q-19 0 -31 -12t-12 -32q0 -22 16 -44h102q14 0 14 -14v-34q0 -14 -14 -14h-194q-14 0 -14 15v33q0 14 14 14z" />
    <glyph glyph-name="uniFEF9" unicode="&#xfedf;&#xfe88;" horiz-adv-x="654" arabic-form="isolated" 
d="M392 110h37q29 0 38.5 10t9.5 41v519q0 21 19 24l72 10q10 1 15.5 -4.5t5.5 -16.5v-568q0 -125 -149 -125h-371q-24 0 -24 25v60q0 25 24 25h207l-141 502q-8 26 18 35l53 18q27 9 35 -20zM159 -260h29q-18 29 -18 59q0 40 29 65.5t72 25.5q42 0 78 -23q13 -10 7 -21
l-10 -25q-6 -13 -17 -7q-28 14 -51 14q-19 0 -31 -12t-12 -32q0 -21 16 -44h102q14 0 14 -14v-34q0 -14 -14 -14h-194q-14 0 -14 15v33q0 8 3 11t11 3z" />
    <glyph glyph-name="uniFEFA" unicode="&#xfee0;&#xfe88;" horiz-adv-x="699" arabic-form="final" 
d="M392 110h37q29 0 38.5 10t9.5 41v519q0 21 19 24l72 10q10 1 15.5 -4.5t5.5 -16.5v-554q32 -29 104 -29h6v-110h-6q-84 0 -123 50q-33 -50 -130 -50h-371q-24 0 -24 25v60q0 25 24 25h207l-141 502q-8 26 18 35l53 18q27 9 35 -20zM159 -260h29q-18 29 -18 59
q0 40 29 65.5t72 25.5q42 0 78 -23q13 -10 7 -21l-10 -25q-6 -13 -17 -7q-28 14 -51 14q-19 0 -31 -12t-12 -32q0 -21 16 -44h102q14 0 14 -14v-34q0 -14 -14 -14h-194q-14 0 -14 15v33q0 8 3 11t11 3z" />
    <glyph glyph-name="uniFEFB" unicode="&#xfedf;&#xfe8e;" horiz-adv-x="654" arabic-form="isolated" 
d="M392 110h37q29 0 38.5 10t9.5 41v519q0 21 19 24l72 10q10 1 15.5 -4.5t5.5 -16.5v-568q0 -125 -149 -125h-371q-24 0 -24 25v60q0 25 24 25h207l-141 502q-8 26 18 35l53 18q27 9 35 -20z" />
    <glyph glyph-name="uniFEFC" unicode="&#xfee0;&#xfe8e;" horiz-adv-x="699" arabic-form="final" 
d="M392 110h37q29 0 38.5 10t9.5 41v519q0 21 19 24l72 10q10 1 15.5 -4.5t5.5 -16.5v-554q32 -29 104 -29h6v-110h-6q-84 0 -123 50q-33 -50 -130 -50h-371q-24 0 -24 25v60q0 25 24 25h207l-141 502q-8 26 18 35l53 18q27 9 35 -20z" />
    <glyph glyph-name="uni06440671" unicode="&#xfedf;&#xfb51;" horiz-adv-x="654" 
d="M392 110h37q29 0 38.5 10t9.5 41v519q0 21 19 24l72 10q10 1 15.5 -4.5t5.5 -16.5v-568q0 -125 -149 -125h-371q-24 0 -24 25v60q0 25 24 25h207l-114 404q-7 27 18 35l53 18q27 9 35 -20zM151 793v-23q39 29 72 29q77 0 77 -85q0 -47 -20.5 -65t-76.5 -18h-134
q-12 0 -12 11v34q0 11 12 11h19v98q0 13 12 15l35 7q16 4 16 -14zM151 687h62q14 0 20.5 6t6.5 23q0 27 -29 27q-32 0 -60 -29v-27z" />
    <glyph glyph-name="uni06440671.fina" unicode="&#xfee0;&#xfb51;" horiz-adv-x="699" 
d="M392 110h37q29 0 38.5 10t9.5 41v519q0 21 19 24l72 10q10 1 15.5 -4.5t5.5 -16.5v-554q32 -29 104 -29h6v-110h-6q-84 0 -123 50q-33 -50 -130 -50h-371q-24 0 -24 25v60q0 25 24 25h207l-114 404q-7 27 18 35l53 18q27 9 35 -20zM151 793v-23q39 29 72 29q77 0 77 -85
q0 -47 -20.5 -65t-76.5 -18h-134q-12 0 -12 11v34q0 11 12 11h19v98q0 13 12 15l35 7q16 4 16 -14zM151 687h62q14 0 20.5 6t6.5 23q0 27 -29 27q-32 0 -60 -29v-27z" />
    <glyph glyph-name="uni06A1.init" unicode="&#x6a1;" horiz-adv-x="521" 
d="M-10 110h116q-31 50 -31 113q0 84 52.5 136.5t145.5 52.5q92 0 144.5 -53t52.5 -150q0 -103 -57 -156t-161 -53h-262q-32 0 -32 55t32 55zM221 110h43q42 0 67 23.5t25 73.5q0 99 -83 99q-84 0 -84 -99q0 -57 32 -97z" />
    <glyph glyph-name="uni06A1.medi" unicode="&#x6a1;" horiz-adv-x="517" 
d="M-10 110h71q52 0 76 3q-83 68 -83 155q0 69 55.5 117t147.5 48q93 0 149 -48t56 -117q0 -87 -83 -155q24 -3 76 -3h62v-110h-62q-110 0 -198 34q-86 -34 -196 -34h-71q-32 0 -32 55t32 55zM258 141q44 23 66.5 55t22.5 60q0 31 -23 50.5t-66 19.5t-66 -19.5t-23 -50.5
q0 -28 22.5 -60t66.5 -55z" />
    <glyph glyph-name="uni06A1.fina" unicode="&#x6a1;" horiz-adv-x="1017" 
d="M759 141q44 23 66.5 55t22.5 60q0 30 -24 50t-65 20t-65 -20t-24 -50q0 -28 22.5 -60t66.5 -55zM1017 110v-110h-61q-111 0 -197 34q-86 -34 -197 -34h-268q-120 0 -183 55.5t-63 155.5v115q0 25 26 25h60q26 0 26 -25v-66q0 -83 34 -116.5t123 -33.5h245q52 0 76 3
q-83 68 -83 155q0 69 56 117t148 48t148 -48t56 -117q0 -87 -83 -155q24 -3 76 -3h61z" />
    <glyph glyph-name="uni06C2.fina" unicode="&#x6c2;" horiz-adv-x="529" 
d="M157 80v-109q0 -25 -26 -25h-60q-26 0 -26 25v112q0 74 41.5 113t101.5 39q32 0 61 -11t45 -22t54 -40q36 -28 67.5 -40t77.5 -12h36v-110h-22q-73 0 -121.5 18.5t-99.5 62.5q-32 26 -49 36.5t-38 10.5q-42 0 -42 -48zM110 404h29q-18 26 -18 58q0 41 29 66.5t72 25.5
q42 0 78 -23q14 -10 7 -21l-10 -25q-6 -14 -17 -7q-28 14 -51 14q-19 0 -31 -12t-12 -32q0 -22 16 -44h102q14 0 14 -14v-34q0 -14 -14 -14h-194q-14 0 -14 15v33q0 14 14 14z" />
    <glyph glyph-name="uni06C3.fina" unicode="&#x6c3;" horiz-adv-x="523" 
d="M424 477v-304q0 -34 15 -48.5t55 -14.5h29v-110h-36q-124 0 -161 70q-49 -20 -110 -20q-72 0 -121 33t-49 102q0 68 62.5 132.5t203.5 112.5v33q0 22 18 25l72 9q22 3 22 -20zM160 202q0 -45 69 -45q37 0 83 16v156q-70 -25 -111 -58t-41 -69zM287 615q-25 0 -41.5 15
t-16.5 39t16.5 39.5t41.5 15.5q24 0 40.5 -15.5t16.5 -39.5t-16 -39t-41 -15zM434 615q-25 0 -41.5 15t-16.5 39t16.5 39.5t41.5 15.5q24 0 40.5 -15.5t16.5 -39.5t-16 -39t-41 -15z" />
    <glyph glyph-name="uni06D5.fina" unicode="&#x6d5;" horiz-adv-x="523" 
d="M424 477v-304q0 -34 15 -48.5t55 -14.5h29v-110h-36q-124 0 -161 70q-49 -20 -110 -20q-72 0 -121 33t-49 102q0 68 62.5 132.5t203.5 112.5v33q0 22 18 25l72 9q22 3 22 -20zM160 202q0 -45 69 -45q37 0 83 16v156q-70 -25 -111 -58t-41 -69z" />
    <glyph glyph-name="uniFB50" unicode="&#x671;" horiz-adv-x="242" arabic-form="isolated" 
d="M151 0h-60q-26 0 -26 25v655q0 21 19 24l72 10q10 1 15.5 -4.5t5.5 -16.5v-668q0 -25 -26 -25zM93 961v-23q39 29 72 29q77 0 77 -85q0 -47 -20.5 -65t-76.5 -18h-134q-12 0 -12 11v34q0 11 12 11h19v98q0 13 12 15l35 7q16 4 16 -14zM93 855h62q14 0 20.5 6t6.5 23
q0 27 -29 27q-32 0 -60 -29v-27z" />
    <glyph glyph-name="uniFB51" unicode="&#x671;" horiz-adv-x="276" arabic-form="final" 
d="M65 125v555q0 21 19 24l72 10q10 1 15.5 -4.5t5.5 -16.5v-532q0 -31 9.5 -41t38.5 -10h51v-110h-62q-149 0 -149 125zM98 961v-23q39 29 72 29q77 0 77 -85q0 -47 -20.5 -65t-76.5 -18h-134q-12 0 -12 11v34q0 11 12 11h19v98q0 13 12 15l35 7q16 4 16 -14zM98 855h62
q14 0 20.5 6t6.5 23q0 27 -29 27q-32 0 -60 -29v-27z" />
    <glyph glyph-name="uniFB56" unicode="&#x67e;" horiz-adv-x="910" arabic-form="isolated" 
d="M696 0h-401q-120 0 -183 55.5t-63 155.5v115q0 25 26 25h60q26 0 26 -25v-66q0 -83 34 -116.5t123 -33.5h367q29 0 38.5 10t9.5 41v226q0 25 26 25h60q26 0 26 -25v-262q0 -125 -149 -125zM452 -355q-25 0 -41 15t-16 39t16 39t41 15t41.5 -15t16.5 -39t-16.5 -39
t-41.5 -15zM379 -229q-25 0 -41.5 15t-16.5 39t16.5 39.5t41.5 15.5q24 0 40.5 -15.5t16.5 -39.5t-16 -39t-41 -15zM526 -229q-25 0 -41.5 15t-16.5 39t16.5 39.5t41.5 15.5q24 0 40.5 -15.5t16.5 -39.5t-16 -39t-41 -15z" />
    <glyph glyph-name="uniFB57" unicode="&#x67e;" horiz-adv-x="955" arabic-form="final" 
d="M696 0h-401q-120 0 -183 55.5t-63 155.5v115q0 25 26 25h60q26 0 26 -25v-66q0 -83 34 -116.5t123 -33.5h367q29 0 38.5 10t9.5 41v226q0 25 26 25h60q26 0 26 -25v-248q32 -29 104 -29h6v-110h-6q-84 0 -123 50q-33 -50 -130 -50zM442 -355q-25 0 -41 15t-16 39t16 39
t41 15t41.5 -15t16.5 -39t-16.5 -39t-41.5 -15zM369 -229q-25 0 -41.5 15t-16.5 39t16.5 39.5t41.5 15.5q24 0 40.5 -15.5t16.5 -39.5t-16 -39t-41 -15zM516 -229q-25 0 -41.5 15t-16.5 39t16.5 39.5t41.5 15.5q24 0 40.5 -15.5t16.5 -39.5t-16 -39t-41 -15z" />
    <glyph glyph-name="uniFB58" unicode="&#x67e;" horiz-adv-x="304" arabic-form="initial" 
d="M-10 110h88q29 0 38.5 10t9.5 41v226q0 25 26 25h60q26 0 26 -25v-262q0 -125 -149 -125h-99q-32 0 -32 55t32 55zM76 -355q-25 0 -41 15t-16 39t16 39t41 15t41.5 -15t16.5 -39t-16.5 -39t-41.5 -15zM3 -229q-25 0 -41.5 15t-16.5 39t16.5 39.5t41.5 15.5
q24 0 40.5 -15.5t16.5 -39.5t-16 -39t-41 -15zM150 -229q-25 0 -41.5 15t-16.5 39t16.5 39.5t41.5 15.5q24 0 40.5 -15.5t16.5 -39.5t-16 -39t-41 -15z" />
    <glyph glyph-name="uniFB59" unicode="&#x67e;" horiz-adv-x="358" arabic-form="medial" 
d="M99 0h-109q-32 0 -32 55t32 55h98q29 0 38.5 10t9.5 41v226q0 25 26 25h60q26 0 26 -25v-248q32 -29 104 -29h6v-110h-6q-84 0 -123 50q-33 -50 -130 -50zM86 -355q-25 0 -41 15t-16 39t16 39t41 15t41.5 -15t16.5 -39t-16.5 -39t-41.5 -15zM13 -229q-25 0 -41.5 15
t-16.5 39t16.5 39.5t41.5 15.5q24 0 40.5 -15.5t16.5 -39.5t-16 -39t-41 -15zM160 -229q-25 0 -41.5 15t-16.5 39t16.5 39.5t41.5 15.5q24 0 40.5 -15.5t16.5 -39.5t-16 -39t-41 -15z" />
    <glyph glyph-name="uniFB66" unicode="&#x679;" horiz-adv-x="910" arabic-form="isolated" 
d="M696 0h-401q-120 0 -183 55.5t-63 155.5v115q0 25 26 25h60q26 0 26 -25v-66q0 -83 34 -116.5t123 -33.5h367q29 0 38.5 10t9.5 41v226q0 25 26 25h60q26 0 26 -25v-262q0 -125 -149 -125zM421 767v-105q39 29 72 29q78 0 78 -85q0 -47 -21 -65t-77 -18h-135
q-11 0 -11 12v33q0 12 11 12h19v179q0 12 12 15l35 7q17 4 17 -14zM421 580h62q15 0 21.5 6t6.5 22q0 29 -31 29q-30 0 -59 -30v-27z" />
    <glyph glyph-name="uniFB67" unicode="&#x679;" horiz-adv-x="955" arabic-form="final" 
d="M696 0h-401q-120 0 -183 55.5t-63 155.5v115q0 25 26 25h60q26 0 26 -25v-66q0 -83 34 -116.5t123 -33.5h367q29 0 38.5 10t9.5 41v226q0 25 26 25h60q26 0 26 -25v-248q32 -29 104 -29h6v-110h-6q-84 0 -123 50q-33 -50 -130 -50zM421 767v-105q39 29 72 29q78 0 78 -85
q0 -47 -21 -65t-77 -18h-135q-11 0 -11 12v33q0 12 11 12h19v179q0 12 12 15l35 7q17 4 17 -14zM421 580h62q15 0 21.5 6t6.5 22q0 29 -31 29q-30 0 -59 -30v-27z" />
    <glyph glyph-name="uniFB68" unicode="&#x679;" horiz-adv-x="304" arabic-form="initial" 
d="M-10 110h88q29 0 38.5 10t9.5 41v226q0 25 26 25h60q26 0 26 -25v-262q0 -125 -149 -125h-99q-32 0 -32 55t32 55zM148 767v-105q39 29 72 29q78 0 78 -85q0 -47 -21 -65t-77 -18h-135q-11 0 -11 12v33q0 12 11 12h19v179q0 12 12 15l35 7q17 4 17 -14zM148 580h62
q15 0 21.5 6t6.5 22q0 29 -31 29q-30 0 -59 -30v-27z" />
    <glyph glyph-name="uniFB69" unicode="&#x679;" horiz-adv-x="358" arabic-form="medial" 
d="M99 0h-109q-32 0 -32 55t32 55h98q29 0 38.5 10t9.5 41v226q0 25 26 25h60q26 0 26 -25v-248q32 -29 104 -29h6v-110h-6q-84 0 -123 50q-33 -50 -130 -50zM163 767v-105q39 29 72 29q78 0 78 -85q0 -47 -21 -65t-77 -18h-135q-11 0 -11 12v33q0 12 11 12h19v179
q0 12 12 15l35 7q17 4 17 -14zM163 580h62q15 0 21.5 6t6.5 22q0 29 -31 29q-30 0 -59 -30v-27z" />
    <glyph glyph-name="uniFB6A" unicode="&#x6a4;" horiz-adv-x="1015" arabic-form="isolated" 
d="M718 110h41q41 0 65.5 23.5t24.5 73.5q0 99 -82 99q-80 0 -80 -99q0 -59 31 -97zM318 110h286q-31 50 -31 113q0 84 52 136.5t143 52.5q92 0 143.5 -53t51.5 -150q0 -103 -56 -156t-159 -53h-453q-120 0 -183 55.5t-63 155.5v115q0 25 26 25h60q26 0 26 -25v-66
q0 -83 34 -116.5t123 -33.5zM773 649q-25 0 -41 14.5t-16 39.5q0 24 16 39t41 15t41.5 -15t16.5 -39q0 -25 -16.5 -39.5t-41.5 -14.5zM700 522q-25 0 -41.5 15t-16.5 39t16.5 39.5t41.5 15.5q24 0 40.5 -15.5t16.5 -39.5t-16 -39t-41 -15zM847 522q-25 0 -41.5 15t-16.5 39
t16.5 39.5t41.5 15.5q24 0 40.5 -15.5t16.5 -39.5t-16 -39t-41 -15z" />
    <glyph glyph-name="uniFB6B" unicode="&#x6a4;" horiz-adv-x="1017" arabic-form="final" 
d="M759 141q44 23 66.5 55t22.5 60q0 30 -24 50t-65 20t-65 -20t-24 -50q0 -28 22.5 -60t66.5 -55zM1017 110v-110h-61q-111 0 -197 34q-86 -34 -197 -34h-268q-120 0 -183 55.5t-63 155.5v115q0 25 26 25h60q26 0 26 -25v-66q0 -83 34 -116.5t123 -33.5h245q52 0 76 3
q-83 68 -83 155q0 69 56 117t148 48t148 -48t56 -117q0 -87 -83 -155q24 -3 76 -3h61zM764 667q-25 0 -41 14.5t-16 39.5q0 24 16 39t41 15t41.5 -15t16.5 -39q0 -25 -16.5 -39.5t-41.5 -14.5zM691 540q-25 0 -41.5 15t-16.5 39t16.5 39.5t41.5 15.5q24 0 40.5 -15.5
t16.5 -39.5t-16 -39t-41 -15zM838 540q-25 0 -41.5 15t-16.5 39t16.5 39.5t41.5 15.5q24 0 40.5 -15.5t16.5 -39.5t-16 -39t-41 -15z" />
    <glyph glyph-name="uniFB6C" unicode="&#x6a4;" horiz-adv-x="521" arabic-form="initial" 
d="M-10 110h116q-31 50 -31 113q0 84 52.5 136.5t145.5 52.5q92 0 144.5 -53t52.5 -150q0 -103 -57 -156t-161 -53h-262q-32 0 -32 55t32 55zM221 110h43q42 0 67 23.5t25 73.5q0 99 -83 99q-84 0 -84 -99q0 -57 32 -97zM273 649q-25 0 -41 14.5t-16 39.5q0 24 16 39t41 15
t41.5 -15t16.5 -39q0 -25 -16.5 -39.5t-41.5 -14.5zM200 522q-25 0 -41.5 15t-16.5 39t16.5 39.5t41.5 15.5q24 0 40.5 -15.5t16.5 -39.5t-16 -39t-41 -15zM347 522q-25 0 -41.5 15t-16.5 39t16.5 39.5t41.5 15.5q24 0 40.5 -15.5t16.5 -39.5t-16 -39t-41 -15z" />
    <glyph glyph-name="uniFB6D" unicode="&#x6a4;" horiz-adv-x="517" arabic-form="medial" 
d="M-10 110h71q52 0 76 3q-83 68 -83 155q0 69 55.5 117t147.5 48q93 0 149 -48t56 -117q0 -87 -83 -155q24 -3 76 -3h62v-110h-62q-110 0 -198 34q-86 -34 -196 -34h-71q-32 0 -32 55t32 55zM258 141q44 23 66.5 55t22.5 60q0 31 -23 50.5t-66 19.5t-66 -19.5t-23 -50.5
q0 -28 22.5 -60t66.5 -55zM261 667q-25 0 -41 14.5t-16 39.5q0 24 16 39t41 15t41.5 -15t16.5 -39q0 -25 -16.5 -39.5t-41.5 -14.5zM188 540q-25 0 -41.5 15t-16.5 39t16.5 39.5t41.5 15.5q24 0 40.5 -15.5t16.5 -39.5t-16 -39t-41 -15zM335 540q-25 0 -41.5 15t-16.5 39
t16.5 39.5t41.5 15.5q24 0 40.5 -15.5t16.5 -39.5t-16 -39t-41 -15z" />
    <glyph glyph-name="uniFB7A" unicode="&#x686;" horiz-adv-x="577" arabic-form="isolated" 
d="M305 -87q0 21 14 34t35 13q22 0 36 -13t14 -34t-14.5 -34t-35.5 -13t-35 13t-14 34zM432 -87q0 21 14 34t36 13q21 0 35 -13t14 -34t-14 -34t-35 -13t-35.5 13t-14.5 34zM369 -194q0 21 14 34t35 13q22 0 36 -13t14 -34t-14.5 -34t-35.5 -13t-35 13t-14 34zM90 377
q77 53 168 53q90 0 140.5 -48t71.5 -145q17 -78 53 -110q19 -17 19 -38v-63q0 -26 -22 -26h-235q-72 0 -104.5 -20.5t-32.5 -65.5t38 -70.5t108 -25.5h12q17 0 24 -6.5t7 -22.5v-39q0 -20 -4.5 -27t-17.5 -9q-20 -4 -49 -4q-103 0 -168 54.5t-65 150.5q0 195 255 195h118
q-30 31 -46 103q-13 59 -38.5 84.5t-72.5 25.5q-50 0 -115 -37q-13 -6 -19 -4.5t-11 13.5l-24 54q-8 17 10 28z" />
    <glyph glyph-name="uniFB7B" unicode="&#x686;" horiz-adv-x="598" arabic-form="final" 
d="M90 377q77 53 168 53q90 0 140.5 -48t71.5 -145q10 -46 25 -74.5t47 -52.5h56v-110h-313q-72 0 -104.5 -20.5t-32.5 -65.5t38 -70.5t108 -25.5h12q17 0 24 -6.5t7 -22.5v-39q0 -20 -4.5 -27t-17.5 -9q-20 -4 -49 -4q-103 0 -168 54.5t-65 150.5q0 195 255 195h118
q-30 31 -46 103q-13 59 -38.5 84.5t-72.5 25.5q-50 0 -115 -37q-13 -6 -19 -4.5t-11 13.5l-24 54q-8 17 10 28zM432 -87q0 21 14 34t36 13q21 0 35 -13t14 -34t-14 -34t-35 -13t-35.5 13t-14.5 34zM369 -194q0 21 14 34t35 13q22 0 36 -13t14 -34t-14.5 -34t-35.5 -13
t-35 13t-14 34zM305 -87q0 21 14 34t35 13q22 0 36 -13t14 -34t-14.5 -34t-35.5 -13t-35 13t-14 34z" />
    <glyph glyph-name="uniFB7C" unicode="&#x686;" horiz-adv-x="550" arabic-form="initial" 
d="M493 0h-503q-32 0 -32 54q0 56 32 56h390q-30 31 -46 103q-13 60 -38.5 85t-73.5 25q-51 0 -114 -37q-22 -12 -30 9l-24 54q-7 16 11 28q81 53 167 53q90 0 140.5 -48t71.5 -145q17 -78 53 -110q19 -18 19 -38v-63q0 -26 -23 -26zM222 -355q-25 0 -41 15t-16 39t16 39
t41 15t41.5 -15t16.5 -39t-16.5 -39t-41.5 -15zM149 -229q-25 0 -41.5 15t-16.5 39t16.5 39.5t41.5 15.5q24 0 40.5 -15.5t16.5 -39.5t-16 -39t-41 -15zM296 -229q-25 0 -41.5 15t-16.5 39t16.5 39.5t41.5 15.5q24 0 40.5 -15.5t16.5 -39.5t-16 -39t-41 -15z" />
    <glyph glyph-name="uniFB7D" unicode="&#x686;" horiz-adv-x="570" arabic-form="medial" 
d="M570 0h-580q-32 0 -32 54q0 56 32 56h390q-30 31 -45 103q-13 60 -39.5 85t-74.5 25q-51 0 -115 -37q-22 -12 -30 9l-23 54q-7 15 10 28q81 53 168 53q89 0 140 -48t71 -145q10 -48 26 -76t48 -51h54v-110zM222 -355q-25 0 -41 15t-16 39t16 39t41 15t41.5 -15t16.5 -39
t-16.5 -39t-41.5 -15zM149 -229q-25 0 -41.5 15t-16.5 39t16.5 39.5t41.5 15.5q24 0 40.5 -15.5t16.5 -39.5t-16 -39t-41 -15zM296 -229q-25 0 -41.5 15t-16.5 39t16.5 39.5t41.5 15.5q24 0 40.5 -15.5t16.5 -39.5t-16 -39t-41 -15z" />
    <glyph glyph-name="uniFB88" unicode="&#x688;" horiz-adv-x="543" arabic-form="isolated" 
d="M112 408q52 22 139 22q120 0 177.5 -51t57.5 -167v-87q0 -125 -146 -125h-283q-24 0 -24 25v60q0 25 24 25h260q35 0 46 11.5t11 45.5v40q0 64 -31 90t-104 26q-24 0 -65.5 -5t-56.5 -5q-21 0 -21 22v47q0 19 16 26zM232 767v-105q39 29 72 29q78 0 78 -85q0 -47 -21 -65
t-77 -18h-135q-11 0 -11 12v33q0 12 11 12h19v179q0 12 12 15l35 7q17 4 17 -14zM232 580h62q15 0 21.5 6t6.5 22q0 29 -31 29q-30 0 -59 -30v-27z" />
    <glyph glyph-name="uniFB89" unicode="&#x688;" horiz-adv-x="593" arabic-form="final" 
d="M374 110v97q0 64 -30.5 90t-103.5 26q-25 0 -66.5 -5t-56.5 -5q-21 0 -21 22v47q0 19 16 26q52 22 140 22q119 0 176.5 -51t57.5 -167v-102h107v-110h-537q-23 0 -23 25v59q0 26 23 26h318zM232 767v-105q39 29 72 29q78 0 78 -85q0 -47 -21 -65t-77 -18h-135
q-11 0 -11 12v33q0 12 11 12h19v179q0 12 12 15l35 7q17 4 17 -14zM232 580h62q15 0 21.5 6t6.5 22q0 29 -31 29q-30 0 -59 -30v-27z" />
    <glyph glyph-name="uniFB8A" unicode="&#x698;" horiz-adv-x="322" arabic-form="isolated" 
d="M257 387v-274q0 -129 -41.5 -196t-165.5 -133q-21 -12 -33 11l-28 51q-10 19 17 34q83 47 111 95.5t28 150.5v261q0 25 26 25h60q26 0 26 -25zM197 659q-25 0 -41 14.5t-16 39.5q0 24 16 39t41 15t41.5 -15t16.5 -39q0 -25 -16.5 -39.5t-41.5 -14.5zM124 532
q-25 0 -41.5 15t-16.5 39t16.5 39.5t41.5 15.5q24 0 40.5 -15.5t16.5 -39.5t-16 -39t-41 -15zM271 532q-25 0 -41.5 15t-16.5 39t16.5 39.5t41.5 15.5q24 0 40.5 -15.5t16.5 -39.5t-16 -39t-41 -15z" />
    <glyph glyph-name="uniFB8B" unicode="&#x698;" horiz-adv-x="351" arabic-form="final" 
d="M257 387v-277h94v-110h-104q-14 -70 -58.5 -118t-138.5 -98q-21 -12 -33 11l-28 51q-10 19 17 34q83 47 111 95.5t28 150.5v261q0 25 26 25h60q26 0 26 -25zM197 659q-25 0 -41 14.5t-16 39.5q0 24 16 39t41 15t41.5 -15t16.5 -39q0 -25 -16.5 -39.5t-41.5 -14.5z
M124 532q-25 0 -41.5 15t-16.5 39t16.5 39.5t41.5 15.5q24 0 40.5 -15.5t16.5 -39.5t-16 -39t-41 -15zM271 532q-25 0 -41.5 15t-16.5 39t16.5 39.5t41.5 15.5q24 0 40.5 -15.5t16.5 -39.5t-16 -39t-41 -15z" />
    <glyph glyph-name="uniFB8C" unicode="&#x691;" horiz-adv-x="322" arabic-form="isolated" 
d="M257 387v-274q0 -129 -41.5 -196t-165.5 -133q-21 -12 -33 11l-28 51q-10 19 17 34q83 47 111 95.5t28 150.5v261q0 25 26 25h60q26 0 26 -25zM171 767v-105q39 29 72 29q78 0 78 -85q0 -47 -21 -65t-77 -18h-135q-11 0 -11 12v33q0 12 11 12h19v179q0 12 12 15l35 7
q17 4 17 -14zM171 580h62q15 0 21.5 6t6.5 22q0 29 -31 29q-30 0 -59 -30v-27z" />
    <glyph glyph-name="uniFB8D" unicode="&#x691;" horiz-adv-x="351" arabic-form="final" 
d="M257 387v-277h94v-110h-104q-14 -70 -58.5 -118t-138.5 -98q-21 -12 -33 11l-28 51q-10 19 17 34q83 47 111 95.5t28 150.5v261q0 25 26 25h60q26 0 26 -25zM171 767v-105q39 29 72 29q78 0 78 -85q0 -47 -21 -65t-77 -18h-135q-11 0 -11 12v33q0 12 11 12h19v179
q0 12 12 15l35 7q17 4 17 -14zM171 580h62q15 0 21.5 6t6.5 22q0 29 -31 29q-30 0 -59 -30v-27z" />
    <glyph glyph-name="uniFB8E" unicode="&#x6a9;" horiz-adv-x="937" arabic-form="isolated" 
d="M584 425q150 -57 223 -123.5t73 -150.5q0 -45 -18.5 -76t-51 -46.5t-66 -22t-73.5 -6.5h-381q-117 0 -179 55.5t-62 155.5v117q0 23 25 23h62q25 0 25 -23v-68q0 -83 33.5 -116.5t119.5 -33.5h364q87 0 87 53q0 47 -75.5 99.5t-222.5 93.5q-22 7 -22 24v47q0 15 14 26
l293 255q21 18 35 2l37 -42q16 -19 -1 -35z" />
    <glyph glyph-name="uniFB8F" unicode="&#x6a9;" horiz-adv-x="989" arabic-form="final" 
d="M584 425q150 -57 223 -123.5t73 -150.5q0 -7 -2 -21q30 -20 95 -20h16v-110h-16q-87 0 -127 55q-51 -55 -175 -55h-381q-117 0 -179 55.5t-62 155.5v117q0 23 25 23h62q25 0 25 -23v-68q0 -83 33.5 -116.5t119.5 -33.5h364q87 0 87 53q0 47 -75.5 99.5t-222.5 93.5
q-22 7 -22 24v47q0 15 14 26l293 255q21 18 35 2l37 -42q16 -19 -1 -35z" />
    <glyph glyph-name="uniFB90" unicode="&#x6a9;" horiz-adv-x="463" arabic-form="initial" 
d="M201 0h-211q-32 0 -32 54q0 56 32 56h218q87 0 87 53q0 46 -75 98.5t-223 94.5q-22 7 -22 24v47q0 16 14 26l293 255q21 18 35 2l37 -42q16 -19 -1 -35l-239 -208q150 -57 223 -123.5t73 -150.5q0 -45 -18.5 -76t-51 -46.5t-66 -22t-73.5 -6.5z" />
    <glyph glyph-name="uniFB91" unicode="&#x6a9;" horiz-adv-x="519" arabic-form="medial" 
d="M201 0h-211q-32 0 -32 54q0 56 32 56h218q87 0 87 53q0 46 -75 98.5t-223 94.5q-22 7 -22 24v47q0 16 14 26l293 255q21 18 35 2l37 -42q16 -19 -1 -35l-239 -208q150 -57 223 -123.5t73 -150.5q0 -6 -2 -20q29 -21 95 -21h16v-110h-16q-87 0 -127 56q-51 -56 -175 -56z
" />
    <glyph glyph-name="uniFB92" unicode="&#x6af;" horiz-adv-x="937" arabic-form="isolated" 
d="M584 425q150 -57 223 -123.5t73 -150.5q0 -45 -18.5 -76t-51 -46.5t-66 -22t-73.5 -6.5h-381q-117 0 -179 55.5t-62 155.5v117q0 23 25 23h62q25 0 25 -23v-68q0 -83 33.5 -116.5t119.5 -33.5h364q87 0 87 53q0 47 -75.5 99.5t-222.5 93.5q-22 7 -22 24v47q0 15 14 26
l293 255q21 18 35 2l37 -42q16 -19 -1 -35zM433 601l204 177q19 16 30 3l25 -28q15 -17 -1 -30l-204 -177q-19 -16 -30 -3l-25 28q-15 17 1 30z" />
    <glyph glyph-name="uniFB93" unicode="&#x6af;" horiz-adv-x="989" arabic-form="final" 
d="M584 425q150 -57 223 -123.5t73 -150.5q0 -7 -2 -21q30 -20 95 -20h16v-110h-16q-87 0 -127 55q-51 -55 -175 -55h-381q-117 0 -179 55.5t-62 155.5v117q0 23 25 23h62q25 0 25 -23v-68q0 -83 33.5 -116.5t119.5 -33.5h364q87 0 87 53q0 47 -75.5 99.5t-222.5 93.5
q-22 7 -22 24v47q0 15 14 26l293 255q21 18 35 2l37 -42q16 -19 -1 -35zM433 601l204 177q19 16 30 3l25 -28q15 -17 -1 -30l-204 -177q-19 -16 -30 -3l-25 28q-15 17 1 30z" />
    <glyph glyph-name="uniFB94" unicode="&#x6af;" horiz-adv-x="463" arabic-form="initial" 
d="M201 0h-211q-32 0 -32 54q0 56 32 56h218q87 0 87 53q0 46 -75 98.5t-223 94.5q-22 7 -22 24v47q0 16 14 26l293 255q21 18 35 2l37 -42q16 -19 -1 -35l-239 -208q150 -57 223 -123.5t73 -150.5q0 -45 -18.5 -76t-51 -46.5t-66 -22t-73.5 -6.5zM-40 601l204 177
q19 16 30 3l25 -28q15 -17 -1 -30l-204 -177q-19 -16 -30 -3l-25 28q-15 17 1 30z" />
    <glyph glyph-name="uniFB95" unicode="&#x6af;" horiz-adv-x="519" arabic-form="medial" 
d="M201 0h-211q-32 0 -32 54q0 56 32 56h218q87 0 87 53q0 46 -75 98.5t-223 94.5q-22 7 -22 24v47q0 16 14 26l293 255q21 18 35 2l37 -42q16 -19 -1 -35l-239 -208q150 -57 223 -123.5t73 -150.5q0 -6 -2 -20q29 -21 95 -21h16v-110h-16q-87 0 -127 56q-51 -56 -175 -56z
M-40 601l204 177q19 16 30 3l25 -28q15 -17 -1 -30l-204 -177q-19 -16 -30 -3l-25 28q-15 17 1 30z" />
    <glyph glyph-name="uniFB9E" unicode="&#x6ba;" horiz-adv-x="666" arabic-form="isolated" 
d="M603 299v-255q0 -129 -71.5 -196.5t-208.5 -67.5q-130 0 -203.5 63.5t-73.5 188.5q0 81 40 163q9 16 16 20t23 -2l47 -21q24 -10 14 -37q-26 -62 -26 -122q0 -72 42.5 -109t123.5 -37q85 0 125 40t40 121v251q0 23 24 23h64q24 0 24 -23z" />
    <glyph glyph-name="uniFB9F" unicode="&#x6ba;" horiz-adv-x="686" arabic-form="final" 
d="M601 0v3q-11 -109 -81.5 -166t-196.5 -57q-130 0 -203.5 63.5t-73.5 188.5q0 81 40 163q9 16 16 20t23 -2l47 -21q24 -10 14 -37q-26 -62 -26 -122q0 -72 42.5 -109t123.5 -37q85 0 125 40t40 121v251q0 23 24 23h64q24 0 24 -23v-189h83v-110h-85z" />
    <glyph glyph-name="uniFBA4" unicode="&#x6c0;" horiz-adv-x="516" arabic-form="isolated" 
d="M258 -10q-95 0 -150.5 55t-55.5 153q0 92 54.5 162t151.5 70t151.5 -70t54.5 -162q0 -98 -55.5 -153t-150.5 -55zM258 322q-46 0 -69 -38t-23 -87q0 -44 23 -71.5t69 -27.5t69 27.5t23 71.5q0 49 -23 87t-69 38zM161 585h29q-18 26 -18 58q0 41 29 66.5t72 25.5
q42 0 78 -23q14 -10 7 -21l-10 -25q-6 -14 -17 -7q-28 14 -51 14q-19 0 -31 -12t-12 -32q0 -22 16 -44h102q14 0 14 -14v-34q0 -14 -14 -14h-194q-14 0 -14 15v33q0 14 14 14z" />
    <glyph glyph-name="uniFBA5" unicode="&#x6c0;" horiz-adv-x="523" arabic-form="final" 
d="M424 477v-304q0 -34 15 -48.5t55 -14.5h29v-110h-36q-124 0 -161 70q-49 -20 -110 -20q-72 0 -121 33t-49 102q0 68 62.5 132.5t203.5 112.5v33q0 22 18 25l72 9q22 3 22 -20zM160 202q0 -45 69 -45q37 0 83 16v156q-70 -25 -111 -58t-41 -69zM262 663h29q-18 26 -18 58
q0 41 29 66.5t72 25.5q42 0 78 -23q14 -10 7 -21l-10 -25q-6 -14 -17 -7q-28 14 -51 14q-19 0 -31 -12t-12 -32q0 -22 16 -44h102q14 0 14 -14v-34q0 -14 -14 -14h-194q-14 0 -14 15v33q0 14 14 14z" />
    <glyph glyph-name="uniFBA6" unicode="&#x6c1;" horiz-adv-x="516" arabic-form="isolated" 
d="M258 -10q-95 0 -150.5 55t-55.5 153q0 92 54.5 162t151.5 70t151.5 -70t54.5 -162q0 -98 -55.5 -153t-150.5 -55zM258 322q-46 0 -69 -38t-23 -87q0 -44 23 -71.5t69 -27.5t69 27.5t23 71.5q0 49 -23 87t-69 38z" />
    <glyph glyph-name="uniFBA7" unicode="&#x6c1;" horiz-adv-x="529" arabic-form="final" 
d="M157 80v-109q0 -25 -26 -25h-60q-26 0 -26 25v112q0 74 41.5 113t101.5 39q32 0 61 -11t45 -22t54 -40q36 -28 67.5 -40t77.5 -12h36v-110h-22q-73 0 -121.5 18.5t-99.5 62.5q-32 26 -49 36.5t-38 10.5q-42 0 -42 -48z" />
    <glyph glyph-name="uniFBA8" unicode="&#x6c1;" horiz-adv-x="304" arabic-form="initial" 
d="M137 -45h32q26 0 15 -20q-36 -67 -36 -96t38 -29q20 0 20 -13q0 -23 -22.5 -44.5t-56.5 -21.5t-55 22.5t-21 59.5q0 59 52 128q10 14 34 14zM-10 110h88q29 0 38.5 10t9.5 41v226q0 25 26 25h60q26 0 26 -25v-262q0 -125 -149 -125h-99q-32 0 -32 55t32 55z" />
    <glyph glyph-name="uniFBA9" unicode="&#x6c1;" horiz-adv-x="565" arabic-form="medial" 
d="M-10 110h28q71 0 102 27v191q0 25 26 25h60q26 0 26 -25v-107q0 -113 16.5 -182.5t62.5 -133.5q-4 17 -4 43q0 77 55 119.5t164 42.5h39v-110h-37q-68 0 -93.5 -20.5t-25.5 -66.5q0 -57 28 -148q6 -20 -9 -27l-50 -22q-12 -6 -16.5 -6t-13.5 6q-183 148 -219 321
q-39 -37 -111 -37h-28q-32 0 -32 55t32 55z" />
    <glyph glyph-name="uniFBAA" unicode="&#x6be;" horiz-adv-x="790" arabic-form="isolated" 
d="M464 274q0 30 -29 50.5t-64 20.5q-30 0 -49.5 -17t-19.5 -47q0 -61 79 -115q41 23 62 52t21 56zM564 98q57 0 57 44q0 50 -66 114v-1q1 -5 1 -12q0 -63 -73 -129q45 -16 81 -16zM269 402l-38 15q-26 10 -16 29l25 47q9 19 29 13q222 -63 344 -171.5t122 -212.5
q0 -61 -41.5 -93.5t-113.5 -32.5q-97 0 -200 53q-115 -49 -275 -49h-42q-23 0 -23 24v61q0 25 23 25h48q90 0 160 16q-73 75 -73 156q0 35 22 69t48 50z" />
    <glyph glyph-name="uniFBAB" unicode="&#x6be;" horiz-adv-x="669" arabic-form="final" 
d="M86 0h-17q-24 0 -24 25v60q0 25 24 25h17q60 0 93 4q16 146 84 231t162 85q70 0 114 -43t44 -107q0 -49 -34 -95t-92 -71v-1q50 -3 179 -3h33v-110h-33q-67 0 -140 14v-1q41 -25 69 -66t28 -80q0 -67 -49 -112t-121 -45q-89 0 -159 77t-86 219q-64 -6 -92 -6zM427 -182
q24 0 40.5 16t16.5 40q0 39 -49 80.5t-146 61.5q4 -76 42 -137t96 -61zM291 119q91 21 134.5 65t43.5 86q0 24 -13.5 38t-34.5 14q-49 0 -82.5 -56t-47.5 -147z" />
    <glyph glyph-name="uniFBAC" unicode="&#x6be;" horiz-adv-x="710" arabic-form="initial" 
d="M384 274q0 30 -29 50.5t-64 20.5q-30 0 -49.5 -17t-19.5 -47q0 -61 79 -115q41 23 62 52t21 56zM484 98q57 0 57 44q0 50 -66 114v-1q1 -5 1 -12q0 -63 -73 -129q45 -16 81 -16zM25 0h-35q-32 0 -32 55t32 55h41q90 0 160 16q-73 75 -73 156q0 35 22 69t48 50l1 1l-38 15
q-26 10 -16 29l25 47q9 19 29 13q222 -63 344 -171.5t122 -212.5q0 -61 -41.5 -93.5t-113.5 -32.5q-97 0 -200 53q-115 -49 -275 -49z" />
    <glyph glyph-name="uniFBAD" unicode="&#x6be;" horiz-adv-x="606" arabic-form="medial" 
d="M23 0h-33q-32 0 -32 55t32 55h33q60 0 93 4q16 146 84 231t162 85q70 0 114 -43t44 -107q0 -49 -34 -95t-92 -71v-1q50 -3 179 -3h33v-110h-33q-67 0 -140 14v-1q41 -25 69 -66t28 -80q0 -67 -49 -112t-121 -45q-89 0 -159 77t-86 219q-64 -6 -92 -6zM364 -182
q24 0 40.5 16t16.5 40q0 39 -49 80.5t-146 61.5q4 -76 42 -137t96 -61zM228 119q91 21 134.5 65t43.5 86q0 24 -13.5 38t-34.5 14q-49 0 -82.5 -56t-47.5 -147z" />
    <glyph glyph-name="uniFBAE" unicode="&#x6d2;" horiz-adv-x="925" arabic-form="isolated" 
d="M331 403l44 -34q20 -16 4 -35q-45 -52 -123 -103q-54 -35 -70.5 -50t-16.5 -35q0 -16 12.5 -26t35.5 -10h639q24 0 24 -25v-60q0 -25 -24 -25h-624q-177 0 -177 134q0 50 29.5 88t84.5 75q79 53 125 97q21 21 37 9z" />
    <glyph glyph-name="uniFBAF" unicode="&#x6d2;" horiz-adv-x="617" arabic-form="final" 
d="M279 -139h470q24 0 24 -25v-60q0 -25 -24 -25h-454q-122 0 -181 44t-59 135q0 86 51.5 133t152.5 47h358v-110h-360q-48 0 -68 -17.5t-20 -52.5q0 -37 27.5 -53t82.5 -16z" />
    <glyph glyph-name="uniFBB0" unicode="&#x6d3;" horiz-adv-x="925" arabic-form="isolated" 
d="M331 403l44 -34q20 -16 4 -35q-45 -52 -123 -103q-54 -35 -70.5 -50t-16.5 -35q0 -16 12.5 -26t35.5 -10h639q24 0 24 -25v-60q0 -25 -24 -25h-624q-177 0 -177 134q0 50 29.5 88t84.5 75q79 53 125 97q21 21 37 9zM92 585h29q-18 26 -18 58q0 41 29 66.5t72 25.5
q42 0 78 -23q14 -10 7 -21l-10 -25q-6 -14 -17 -7q-28 14 -51 14q-19 0 -31 -12t-12 -32q0 -22 16 -44h102q14 0 14 -14v-34q0 -14 -14 -14h-194q-14 0 -14 15v33q0 14 14 14z" />
    <glyph glyph-name="uniFBB1" unicode="&#x6d3;" horiz-adv-x="617" arabic-form="final" 
d="M279 -139h470q24 0 24 -25v-60q0 -25 -24 -25h-454q-122 0 -181 44t-59 135q0 86 51.5 133t152.5 47h358v-110h-360q-48 0 -68 -17.5t-20 -52.5q0 -37 27.5 -53t82.5 -16zM121 289h29q-18 26 -18 58q0 41 29 66.5t72 25.5q42 0 78 -23q14 -10 7 -21l-10 -25
q-6 -14 -17 -7q-28 14 -51 14q-19 0 -31 -12t-12 -32q0 -22 16 -44h102q14 0 14 -14v-34q0 -14 -14 -14h-194q-14 0 -14 15v33q0 14 14 14z" />
    <glyph glyph-name="uniFBE8" unicode="&#x649;" horiz-adv-x="304" arabic-form="initial" 
d="M-10 110h88q29 0 38.5 10t9.5 41v226q0 25 26 25h60q26 0 26 -25v-262q0 -125 -149 -125h-99q-32 0 -32 55t32 55z" />
    <glyph glyph-name="uniFBE9" unicode="&#x649;" horiz-adv-x="358" arabic-form="medial" 
d="M99 0h-109q-32 0 -32 55t32 55h98q29 0 38.5 10t9.5 41v226q0 25 26 25h60q26 0 26 -25v-248q32 -29 104 -29h6v-110h-6q-84 0 -123 50q-33 -50 -130 -50z" />
    <glyph glyph-name="uniFBFC" unicode="&#x6cc;" horiz-adv-x="854" arabic-form="isolated" 
d="M743 296q-73 37 -137 37q-51 0 -79.5 -23t-28.5 -57q0 -29 24 -53t91 -60q70 -38 108 -73.5t38 -84.5q0 -89 -99 -145.5t-259 -56.5q-172 0 -265 64.5t-93 189.5q0 87 48 181q9 17 16.5 21t24.5 -2l48 -22q14 -6 16.5 -13.5t-4.5 -23.5q-35 -72 -35 -133q0 -154 245 -154
q106 0 174.5 26.5t68.5 61.5q0 19 -24 37.5t-74 46.5q-36 21 -59 36.5t-50 39.5t-40.5 52.5t-13.5 61.5q0 90 63.5 140t156.5 50t176 -50q26 -15 17 -35l-23 -52q-8 -19 -31 -7z" />
    <glyph glyph-name="uniFBFD" unicode="&#x6cc;" horiz-adv-x="776" arabic-form="final" 
d="M402 -112q112 0 179 24t67 57q0 35 -99 69l-93 32q-23 8 -16 32l16 51q9 29 37 19l58 -20q120 -42 205 -42h20v-110h-24q10 -17 10 -36q0 -79 -100 -131.5t-261 -52.5q-172 0 -265 64.5t-93 189.5q0 87 48 181q9 17 16.5 21t24.5 -2l48 -22q14 -6 16.5 -13.5t-4.5 -23.5
q-35 -72 -35 -133q0 -154 245 -154z" />
    <glyph glyph-name="uniFBFE" unicode="&#x6cc;" horiz-adv-x="304" arabic-form="initial" 
d="M-10 110h88q29 0 38.5 10t9.5 41v226q0 25 26 25h60q26 0 26 -25v-262q0 -125 -149 -125h-99q-32 0 -32 55t32 55zM3 -229q-25 0 -41.5 15t-16.5 39t16.5 39.5t41.5 15.5q24 0 40.5 -15.5t16.5 -39.5t-16 -39t-41 -15zM150 -229q-25 0 -41.5 15t-16.5 39t16.5 39.5
t41.5 15.5q24 0 40.5 -15.5t16.5 -39.5t-16 -39t-41 -15z" />
    <glyph glyph-name="uniFBFF" unicode="&#x6cc;" horiz-adv-x="358" arabic-form="medial" 
d="M99 0h-109q-32 0 -32 55t32 55h98q29 0 38.5 10t9.5 41v226q0 25 26 25h60q26 0 26 -25v-248q32 -29 104 -29h6v-110h-6q-84 0 -123 50q-33 -50 -130 -50zM13 -229q-25 0 -41.5 15t-16.5 39t16.5 39.5t41.5 15.5q24 0 40.5 -15.5t16.5 -39.5t-16 -39t-41 -15zM160 -229
q-25 0 -41.5 15t-16.5 39t16.5 39.5t41.5 15.5q24 0 40.5 -15.5t16.5 -39.5t-16 -39t-41 -15z" />
    <glyph glyph-name="uniFC5E" unicode="&#xfc5e;" arabic-form="isolated" 
d="M25 696v-85q0 -21 20 -21t20 23v96q0 11 9 11h32q10 0 10 -11v-106q0 -36 -13.5 -52.5t-45.5 -16.5q-36 0 -52 29q-14 -40 -61 -40q-29 0 -44.5 18.5t-15.5 49.5v92q0 11 10 11h33q8 0 8 -11v-82q0 -22 19 -22q21 0 21 23v94q0 11 9 11h32q9 0 9 -11zM-65 762
q-25 -6 -25 15q0 7 4 28.5t4 32.5q0 19 -16 19q-5 0 -15 -2q-10 -3 -10 6v25q0 9 9 12q15 6 34 6q17 0 31 -10t14 -32q0 -19 -3 -38q32 10 55 27q-50 16 -50 67q0 38 23 58t55 20q34 0 53.5 -21t19.5 -60q0 -32 -19 -59.5t-50.5 -45.5t-58 -29t-55.5 -19zM19 921
q0 -27 35 -36q10 14 10 35q0 29 -23 29q-22 0 -22 -28z" />
    <glyph glyph-name="uniFC5F" unicode="&#xfc5f;" arabic-form="isolated" 
d="M110 591v-28q0 -15 -16 -16l-187 -22q-17 -3 -17 14v28q0 15 16 16l187 22q17 3 17 -14zM110 689v-28q0 -15 -16 -16l-187 -22q-17 -3 -17 14v28q0 15 16 16l187 22q17 3 17 -14zM25 931v-85q0 -21 20 -21t20 23v96q0 11 9 11h32q10 0 10 -11v-106q0 -36 -13.5 -52.5
t-45.5 -16.5q-36 0 -52 29q-14 -40 -61 -40q-29 0 -44.5 18.5t-15.5 49.5v92q0 11 10 11h33q8 0 8 -11v-82q0 -22 19 -22q21 0 21 23v94q0 11 9 11h32q9 0 9 -11z" />
    <glyph glyph-name="uniFC60" unicode="&#xfc60;" arabic-form="isolated" 
d="M25 696v-85q0 -21 20 -21t20 23v96q0 11 9 11h32q10 0 10 -11v-106q0 -36 -13.5 -52.5t-45.5 -16.5q-36 0 -52 29q-14 -40 -61 -40q-29 0 -44.5 18.5t-15.5 49.5v92q0 11 10 11h33q8 0 8 -11v-82q0 -22 19 -22q21 0 21 23v94q0 11 9 11h32q9 0 9 -11zM110 840v-28
q0 -15 -16 -16l-187 -22q-17 -3 -17 14v28q0 15 16 16l187 22q17 3 17 -14z" />
    <glyph glyph-name="uniFC61" unicode="&#xfc61;" arabic-form="isolated" 
d="M25 696v-85q0 -21 20 -21t20 23v96q0 11 9 11h32q10 0 10 -11v-106q0 -36 -13.5 -52.5t-45.5 -16.5q-36 0 -52 29q-14 -40 -61 -40q-29 0 -44.5 18.5t-15.5 49.5v92q0 11 10 11h33q8 0 8 -11v-82q0 -22 19 -22q21 0 21 23v94q0 11 9 11h32q9 0 9 -11zM-98 813
q63 16 104 40q-49 17 -49 66q0 37 23 57.5t56 20.5q35 0 54 -21t19 -60q0 -101 -189 -155q-20 -5 -22 9l-6 26q-3 14 10 17zM11 922q0 -28 35 -36q10 15 10 33q0 30 -22 30q-23 0 -23 -27z" />
    <glyph glyph-name="uniFC62" unicode="&#xfc62;" arabic-form="isolated" 
d="M110 591v-28q0 -15 -16 -16l-187 -22q-17 -3 -17 14v28q0 15 16 16l187 22q17 3 17 -14zM25 833v-85q0 -21 20 -21t20 23v96q0 11 9 11h32q10 0 10 -11v-106q0 -36 -13.5 -52.5t-45.5 -16.5q-36 0 -52 29q-14 -40 -61 -40q-29 0 -44.5 18.5t-15.5 49.5v92q0 11 10 11h33
q8 0 8 -11v-82q0 -22 19 -22q21 0 21 23v94q0 11 9 11h32q9 0 9 -11z" />
    <glyph glyph-name="uniFC63" unicode="&#xfc63;" arabic-form="isolated" 
d="M25 696v-85q0 -21 20 -21t20 23v96q0 11 9 11h32q10 0 10 -11v-106q0 -36 -13.5 -52.5t-45.5 -16.5q-36 0 -52 29q-14 -40 -61 -40q-29 0 -44.5 18.5t-15.5 49.5v92q0 11 10 11h33q8 0 8 -11v-82q0 -22 19 -22q21 0 21 23v94q0 11 9 11h32q9 0 9 -11zM31 948v-167
q0 -14 -13 -14h-35q-14 0 -14 14v160q0 14 11 15l37 4q14 2 14 -12z" />
    <glyph glyph-name="uniFDF2" unicode="&#xfdf2;" horiz-adv-x="1324" arabic-form="isolated" 
d="M436 484v-311q0 -34 16 -48.5t56 -14.5h68q29 0 38.5 10t9.5 41v353q0 21 19 24l72 10q10 1 15.5 -4.5t5.5 -16.5v-388q32 -29 104 -29h23q29 0 38.5 10t9.5 41v404q0 21 19 24l72 10q10 1 15.5 -4.5t5.5 -16.5v-453q0 -125 -149 -125h-34q-84 0 -123 50
q-33 -50 -130 -50h-86q-124 0 -161 70q-55 -20 -113 -20q-74 0 -123 34t-49 101q0 68 63.5 132.5t205.5 112.5v41q0 21 19 24l72 10q10 1 15.5 -4.5t5.5 -16.5zM324 173v156q-71 -25 -112 -58t-41 -69q0 -45 69 -45q40 0 84 16zM777 744v80q0 14 14 14h30q14 0 14 -14v-79
q0 -94 -81 -94q-43 0 -69 33q-26 -43 -78 -43q-82 0 -82 94v63q0 14 14 14h30q14 0 14 -14v-63q0 -38 34 -38t34 37v77q0 14 14 14h30q14 0 14 -14v-66q0 -38 34 -38t34 37zM661 1070l34 5q14 2 14 -12v-167q0 -14 -12 -14h-33q-13 0 -13 14v160q0 13 10 14zM1233 0h-60
q-26 0 -26 25v655q0 21 19 24l72 10q10 1 15.5 -4.5t5.5 -16.5v-668q0 -25 -26 -25z" />
    <glyph glyph-name="uniFDFA" unicode="&#xfdfa;" horiz-adv-x="1453" arabic-form="isolated" 
d="M1333 -74v-39q0 -51 -19 -80t-79 -60q-12 -5 -17 6l-12 23q-4 9 8 16q46 25 58 48q-11 -4 -27 -4q-33 0 -54.5 23t-21.5 63q0 38 22.5 61.5t60.5 23.5q37 0 59 -20.5t22 -60.5zM698 504v261q0 9 9 11l33 5q5 1 7.5 -2t2.5 -8v-267q0 -12 -12 -12h-28q-12 0 -12 12z
M1135 544h115q16 0 22.5 6t6.5 21q0 23 -10.5 36.5t-29.5 13.5q-50 0 -104 -77zM1281 -107v33q0 31 -28 31q-30 0 -30 -34q0 -37 31 -37q15 0 27 7zM234 -112h15q32 0 32 34q0 35 -29 35t-29 -35q0 -18 11 -34zM222 567v54q-23 -8 -38 -20.5t-15 -23.5q0 -15 24 -15
q14 0 29 5zM440 164h-201q-47 0 -64 28q-21 -8 -44 -8q-30 0 -50.5 14t-20.5 43q0 63 106 101v12q0 10 9 11l33 5q5 1 7.5 -2t2.5 -8v-123q0 -21 23 -21h195q9 0 12 3t3 13v91q0 12 12 12h28q12 0 12 -12v-98q10 -9 40 -9h401q9 0 12 3t3 13v205q0 9 9 11l33 5q5 1 7.5 -2
t2.5 -8v-218q10 -9 40 -9h177q-16 23 -16 50q0 33 24 54.5t61 21.5q20 0 46.5 -9.5t21.5 -22.5l-11 -24q-4 -10 -15 -4q-22 10 -38 10q-36 0 -36 -32q0 -24 21 -44h91q12 0 12 -13v-26q0 -13 -12 -13h-327q-33 0 -50 18q-15 -18 -52 -18h-406q-34 0 -50 18q-15 -18 -52 -18z
M506 728v-182q0 -54 -68 -54q-39 0 -57 18q-15 -18 -52 -18h-34q-47 0 -64 28q-21 -8 -44 -8q-30 0 -50.5 14t-20.5 43q0 63 106 101v12q0 10 9 11l33 5q5 1 7.5 -2t2.5 -8v-123q0 -21 23 -21h28q9 0 12 3t3 13v142q0 10 9 11l33 5q5 1 7.5 -2t2.5 -8v-155q10 -9 44 -9
q11 0 14.5 3t3.5 13v162q0 10 9 11l33 5q5 1 7.5 -2t2.5 -8zM166 239v54q-23 -8 -38 -20.5t-15 -23.5q0 -15 24 -15q14 0 29 5zM468 99q0 -12 -7.5 -19t-19.5 -7t-19.5 7t-7.5 19t7.5 19t19.5 7t19.5 -7t7.5 -19zM539 99q0 -12 -7.5 -19t-19.5 -7t-19.5 7t-7.5 19t7.5 19
t19.5 7t19.5 -7t7.5 -19zM785 535l7 23q4 15 19 10l23 -8q43 -16 86 -16h24q9 0 12 3t3 13v205q0 9 9 11l33 5q5 1 7.5 -2t2.5 -8v-218q10 -9 40 -9h33v107q0 12 12 12h28q12 0 12 -12v-40q21 27 49.5 43.5t55.5 16.5q43 0 67.5 -27.5t24.5 -74.5q0 -42 -20.5 -59.5
t-71.5 -17.5h-191q-33 0 -50 18q-15 -18 -52 -18h-30q2 -6 2 -11q0 -34 -45 -55t-120 -21q-164 0 -164 105q0 40 21 75q7 12 19 7l22 -10q11 -5 5 -18q-13 -29 -13 -51q0 -30 26 -44t85 -14q36 0 62 4t37 10.5t11 13.5q0 9 -30 20l-43 15q-12 4 -8 17zM801 305l-136 -17
q-11 -2 -11 10v9q0 10 11 11l136 17q11 2 11 -10v-9q0 -10 -11 -11zM915 47l-136 -17q-11 -2 -11 10v9q0 10 11 11l136 17q11 2 11 -10v-9q0 -10 -11 -11zM1341 402l-136 -17q-11 -2 -11 10v9q0 10 11 11l136 17q11 2 11 -10v-9q0 -10 -11 -11zM1199 739l-136 -17
q-11 -2 -11 10v9q0 10 11 11l136 17q11 2 11 -10v-9q0 -10 -11 -11zM628 -275h143q15 0 15 10v33q0 8 8 8h19q8 0 8 -8v-37q6 -6 13 -6h8q7 1 7 12v31q0 8 8 8h19q8 0 8 -8v-38q6 -6 14 -6q11 0 11 13v53q0 8 8 8h19q8 0 8 -8v-59q0 -17 -10.5 -28t-29.5 -11t-31 12
q-12 -12 -30 -12q-17 0 -31 11q-9 -11 -32 -11h-152q-7 0 -7 7v18q0 8 7 8zM143 -281q-7 -1 -10 1.5t-6 11.5q-11 38 -11 82q0 70 64 73q-11 19 -11 42q0 34 22.5 56t60.5 22t60 -22t22 -63q0 -20 -7 -34h275q9 0 12 3t3 13v205q0 9 9 11l33 5q5 1 7.5 -2t2.5 -8v-218
q10 -9 40 -9h101q19 0 19 19v52q0 12 12 12h28q12 0 12 -12v-60q14 -11 29 -11q22 0 22 24v47q0 12 12 12h28q12 0 12 -12v-60q13 -11 27 -11q21 0 21 24v83q0 12 12 12h28q12 0 12 -12v-96q0 -27 -16.5 -45t-47.5 -18q-32 0 -52 21q-16 -21 -49 -21q-29 0 -51 20
q-16 -20 -66 -20h-94q-34 0 -50 18q-15 -18 -52 -18h-401q-21 0 -28.5 -5t-7.5 -20q0 -24 10 -73q2 -13 -11 -15zM331 822v-28q0 -11 12 -11q10 0 10 10v34q0 7 7 7h14q7 0 7 -7v-29q0 -11 12 -11q10 0 10 10v35q0 7 7 7h14q7 0 7 -7v-35q0 -40 -33 -40q-16 0 -28 12
q-11 -16 -32 -16q-35 0 -35 42v27q0 7 7 7h14q7 0 7 -7zM381 926v-66q0 -7 -7 -7h-14q-7 0 -7 7v62q0 7 5 8l16 3q4 1 5.5 -1t1.5 -6zM844 698q0 28 -15 57q-6 9 5 11l11 2q8 1 14 -9q14 -25 14 -61t-14 -61q-6 -10 -14 -9l-11 2q-11 2 -5 11q15 29 15 57z" />
    <glyph glyph-name="uniFE80" unicode="&#x621;" horiz-adv-x="506" arabic-form="isolated" 
d="M297 237q-32 0 -48 -16.5t-16 -42.5q0 -42 30 -76h171q21 0 21 -24v-55q0 -23 -22 -23h-362q-20 0 -20 23v55q0 24 20 24h82q-32 45 -32 96q0 63 45 102t110 39q70 0 120 -34q16 -10 9 -28l-21 -49q-7 -17 -23 -9q-36 18 -64 18z" />
    <glyph glyph-name="uniFE81" unicode="&#x622;" horiz-adv-x="242" arabic-form="isolated" 
d="M151 0h-60q-26 0 -26 25v655q0 21 19 24l72 10q10 1 15.5 -4.5t5.5 -16.5v-668q0 -25 -26 -25zM58 906q28 0 64 -19q42 -19 62 -19q23 0 41 24q9 10 15 1l20 -24q7 -9 0 -18q-35 -52 -76 -52q-28 0 -64 19q-42 20 -63 20q-23 0 -41 -24q-9 -10 -15 -1l-20 23q-7 9 0 19
q32 51 77 51z" />
    <glyph glyph-name="uniFE82" unicode="&#x622;" horiz-adv-x="276" arabic-form="final" 
d="M65 125v555q0 21 19 24l72 10q10 1 15.5 -4.5t5.5 -16.5v-532q0 -31 9.5 -41t38.5 -10h51v-110h-62q-149 0 -149 125zM59 906q28 0 64 -19q42 -19 62 -19q23 0 41 24q9 10 15 1l20 -24q7 -9 0 -18q-35 -52 -76 -52q-28 0 -64 19q-42 20 -63 20q-23 0 -41 -24
q-9 -10 -15 -1l-20 23q-7 9 0 19q31 51 77 51z" />
    <glyph glyph-name="uniFE83" unicode="&#x623;" horiz-adv-x="242" arabic-form="isolated" 
d="M151 0h-60q-26 0 -26 25v655q0 21 19 24l72 10q10 1 15.5 -4.5t5.5 -16.5v-668q0 -25 -26 -25zM24 861h29q-18 26 -18 58q0 41 29 66.5t72 25.5q42 0 78 -23q14 -10 7 -21l-10 -25q-6 -14 -17 -7q-28 14 -51 14q-19 0 -31 -12t-12 -32q0 -22 16 -44h102q14 0 14 -14v-34
q0 -14 -14 -14h-194q-14 0 -14 15v33q0 14 14 14z" />
    <glyph glyph-name="uniFE84" unicode="&#x623;" horiz-adv-x="276" arabic-form="final" 
d="M65 125v555q0 21 19 24l72 10q10 1 15.5 -4.5t5.5 -16.5v-532q0 -31 9.5 -41t38.5 -10h51v-110h-62q-149 0 -149 125zM25 861h29q-18 26 -18 58q0 41 29 66.5t72 25.5q42 0 78 -23q14 -10 7 -21l-10 -25q-6 -14 -17 -7q-28 14 -51 14q-19 0 -31 -12t-12 -32q0 -22 16 -44
h102q14 0 14 -14v-34q0 -14 -14 -14h-194q-14 0 -14 15v33q0 14 14 14z" />
    <glyph glyph-name="uniFE85" unicode="&#x624;" horiz-adv-x="508" arabic-form="isolated" 
d="M332 130v89q0 86 -79 86q-43 0 -65.5 -25.5t-22.5 -69.5q0 -102 90 -102q42 0 77 22zM317 18q-39 -18 -83 -18q-82 0 -132.5 56t-50.5 153q0 92 53.5 147.5t145.5 55.5q90 0 142 -48.5t52 -145.5v-97q0 -133 -45 -201.5t-191 -141.5q-21 -11 -33 11l-28 51q-10 20 17 34
q70 37 104.5 68.5t48.5 75.5zM151 585h29q-18 26 -18 58q0 41 29 66.5t72 25.5q42 0 78 -23q14 -10 7 -21l-10 -25q-6 -14 -17 -7q-28 14 -51 14q-19 0 -31 -12t-12 -32q0 -22 16 -44h102q14 0 14 -14v-34q0 -14 -14 -14h-194q-14 0 -14 15v33q0 14 14 14z" />
    <glyph glyph-name="uniFE86" unicode="&#x624;" horiz-adv-x="544" arabic-form="final" 
d="M208 -222q-21 -11 -33 11l-28 51q-10 20 17 34q63 34 96.5 62t49.5 64h-55q-204 0 -204 209q0 92 53.5 147.5t145.5 55.5q90 0 142 -48.5t52 -145.5v-108h100v-110h-111q-17 -68 -67 -117.5t-158 -104.5zM273 110h59v109q0 86 -79 86q-43 0 -65.5 -25.5t-22.5 -69.5
q0 -58 24.5 -79t83.5 -21zM151 585h29q-18 26 -18 58q0 41 29 66.5t72 25.5q42 0 78 -23q14 -10 7 -21l-10 -25q-6 -14 -17 -7q-28 14 -51 14q-19 0 -31 -12t-12 -32q0 -22 16 -44h102q14 0 14 -14v-34q0 -14 -14 -14h-194q-14 0 -14 15v33q0 14 14 14z" />
    <glyph glyph-name="uniFE87" unicode="&#x625;" horiz-adv-x="242" arabic-form="isolated" 
d="M151 0h-60q-26 0 -26 25v655q0 21 19 24l72 10q10 1 15.5 -4.5t5.5 -16.5v-668q0 -25 -26 -25zM24 -260h29q-18 29 -18 59q0 40 29 65.5t72 25.5q42 0 78 -23q13 -10 7 -21l-10 -25q-6 -13 -17 -7q-28 14 -51 14q-19 0 -31 -12t-12 -32q0 -21 16 -44h102q14 0 14 -14v-34
q0 -14 -14 -14h-194q-14 0 -14 15v33q0 8 3 11t11 3z" />
    <glyph glyph-name="uniFE88" unicode="&#x625;" horiz-adv-x="276" arabic-form="final" 
d="M65 125v555q0 21 19 24l72 10q10 1 15.5 -4.5t5.5 -16.5v-532q0 -31 9.5 -41t38.5 -10h51v-110h-62q-149 0 -149 125zM24 -260h29q-18 29 -18 59q0 40 29 65.5t72 25.5q42 0 78 -23q13 -10 7 -21l-10 -25q-6 -13 -17 -7q-28 14 -51 14q-19 0 -31 -12t-12 -32
q0 -21 16 -44h102q14 0 14 -14v-34q0 -14 -14 -14h-194q-14 0 -14 15v33q0 8 3 11t11 3z" />
    <glyph glyph-name="uniFE89" unicode="&#x626;" horiz-adv-x="854" arabic-form="isolated" 
d="M743 296q-73 37 -137 37q-51 0 -79.5 -23t-28.5 -57q0 -29 24 -53t91 -60q70 -38 108 -73.5t38 -84.5q0 -89 -99 -145.5t-259 -56.5q-172 0 -265 64.5t-93 189.5q0 87 48 181q9 17 16.5 21t24.5 -2l48 -22q14 -6 16.5 -13.5t-4.5 -23.5q-35 -72 -35 -133q0 -154 245 -154
q106 0 174.5 26.5t68.5 61.5q0 19 -24 37.5t-74 46.5q-36 21 -59 36.5t-50 39.5t-40.5 52.5t-13.5 61.5q0 90 63.5 140t156.5 50t176 -50q26 -15 17 -35l-23 -52q-8 -19 -31 -7zM39 416h29q-18 26 -18 58q0 41 29 66.5t72 25.5q42 0 78 -23q14 -10 7 -21l-10 -25
q-6 -14 -17 -7q-28 14 -51 14q-19 0 -31 -12t-12 -32q0 -22 16 -44h102q14 0 14 -14v-34q0 -14 -14 -14h-194q-14 0 -14 15v33q0 14 14 14z" />
    <glyph glyph-name="uniFE8A" unicode="&#x626;" horiz-adv-x="776" arabic-form="final" 
d="M402 -112q112 0 179 24t67 57q0 35 -99 69l-93 32q-23 8 -16 32l16 51q9 29 37 19l58 -20q120 -42 205 -42h20v-110h-24q10 -17 10 -36q0 -79 -100 -131.5t-261 -52.5q-172 0 -265 64.5t-93 189.5q0 87 48 181q9 17 16.5 21t24.5 -2l48 -22q14 -6 16.5 -13.5t-4.5 -23.5
q-35 -72 -35 -133q0 -154 245 -154zM39 416h29q-18 26 -18 58q0 41 29 66.5t72 25.5q42 0 78 -23q14 -10 7 -21l-10 -25q-6 -14 -17 -7q-28 14 -51 14q-19 0 -31 -12t-12 -32q0 -22 16 -44h102q14 0 14 -14v-34q0 -14 -14 -14h-194q-14 0 -14 15v33q0 14 14 14z" />
    <glyph glyph-name="uniFE8B" unicode="&#x626;" horiz-adv-x="304" arabic-form="initial" 
d="M-10 110h88q29 0 38.5 10t9.5 41v226q0 25 26 25h60q26 0 26 -25v-262q0 -125 -149 -125h-99q-32 0 -32 55t32 55zM83 585h29q-18 26 -18 58q0 41 29 66.5t72 25.5q42 0 78 -23q14 -10 7 -21l-10 -25q-6 -14 -17 -7q-28 14 -51 14q-19 0 -31 -12t-12 -32q0 -22 16 -44
h102q14 0 14 -14v-34q0 -14 -14 -14h-194q-14 0 -14 15v33q0 14 14 14z" />
    <glyph glyph-name="uniFE8C" unicode="&#x626;" horiz-adv-x="358" arabic-form="medial" 
d="M99 0h-109q-32 0 -32 55t32 55h98q29 0 38.5 10t9.5 41v226q0 25 26 25h60q26 0 26 -25v-248q32 -29 104 -29h6v-110h-6q-84 0 -123 50q-33 -50 -130 -50zM92 585h29q-18 26 -18 58q0 41 29 66.5t72 25.5q42 0 78 -23q14 -10 7 -21l-10 -25q-6 -14 -17 -7q-28 14 -51 14
q-19 0 -31 -12t-12 -32q0 -22 16 -44h102q14 0 14 -14v-34q0 -14 -14 -14h-194q-14 0 -14 15v33q0 14 14 14z" />
    <glyph glyph-name="uniFE8D" unicode="&#x627;" horiz-adv-x="242" arabic-form="isolated" 
d="M151 0h-60q-26 0 -26 25v655q0 21 19 24l72 10q10 1 15.5 -4.5t5.5 -16.5v-668q0 -25 -26 -25z" />
    <glyph glyph-name="uniFE8E" unicode="&#x627;" horiz-adv-x="276" arabic-form="final" 
d="M65 125v555q0 21 19 24l72 10q10 1 15.5 -4.5t5.5 -16.5v-532q0 -31 9.5 -41t38.5 -10h51v-110h-62q-149 0 -149 125z" />
    <glyph glyph-name="uniFE8F" unicode="&#x628;" horiz-adv-x="910" arabic-form="isolated" 
d="M696 0h-401q-120 0 -183 55.5t-63 155.5v115q0 25 26 25h60q26 0 26 -25v-66q0 -83 34 -116.5t123 -33.5h367q29 0 38.5 10t9.5 41v226q0 25 26 25h60q26 0 26 -25v-262q0 -125 -149 -125zM453 -229q-25 0 -41 15t-16 40q0 24 16 39t41 15t41.5 -15t16.5 -39
q0 -25 -16.5 -40t-41.5 -15z" />
    <glyph glyph-name="uniFE90" unicode="&#x628;" horiz-adv-x="955" arabic-form="final" 
d="M696 0h-401q-120 0 -183 55.5t-63 155.5v115q0 25 26 25h60q26 0 26 -25v-66q0 -83 34 -116.5t123 -33.5h367q29 0 38.5 10t9.5 41v226q0 25 26 25h60q26 0 26 -25v-248q32 -29 104 -29h6v-110h-6q-84 0 -123 50q-33 -50 -130 -50zM441 -229q-25 0 -41 15t-16 40
q0 24 16 39t41 15t41.5 -15t16.5 -39q0 -25 -16.5 -40t-41.5 -15z" />
    <glyph glyph-name="uniFE91" unicode="&#x628;" horiz-adv-x="304" arabic-form="initial" 
d="M-10 110h88q29 0 38.5 10t9.5 41v226q0 25 26 25h60q26 0 26 -25v-262q0 -125 -149 -125h-99q-32 0 -32 55t32 55zM58 -229q-25 0 -41 15t-16 40q0 24 16 39t41 15t41.5 -15t16.5 -39q0 -25 -16.5 -40t-41.5 -15z" />
    <glyph glyph-name="uniFE92" unicode="&#x628;" horiz-adv-x="358" arabic-form="medial" 
d="M99 0h-109q-32 0 -32 55t32 55h98q29 0 38.5 10t9.5 41v226q0 25 26 25h60q26 0 26 -25v-248q32 -29 104 -29h6v-110h-6q-84 0 -123 50q-33 -50 -130 -50zM68 -229q-25 0 -41 15t-16 40q0 24 16 39t41 15t41.5 -15t16.5 -39q0 -25 -16.5 -40t-41.5 -15z" />
    <glyph glyph-name="uniFE93" unicode="&#x629;" horiz-adv-x="516" arabic-form="isolated" 
d="M258 -10q-95 0 -150.5 55t-55.5 153q0 92 54.5 162t151.5 70t151.5 -70t54.5 -162q0 -98 -55.5 -153t-150.5 -55zM258 322q-46 0 -69 -38t-23 -87q0 -44 23 -71.5t69 -27.5t69 27.5t23 71.5q0 49 -23 87t-69 38zM193 540q-25 0 -41.5 15t-16.5 39t16.5 39.5t41.5 15.5
q24 0 40.5 -15.5t16.5 -39.5t-16 -39t-41 -15zM340 540q-25 0 -41.5 15t-16.5 39t16.5 39.5t41.5 15.5q24 0 40.5 -15.5t16.5 -39.5t-16 -39t-41 -15z" />
    <glyph glyph-name="uniFE94" unicode="&#x629;" horiz-adv-x="523" arabic-form="final" 
d="M424 477v-304q0 -34 15 -48.5t55 -14.5h29v-110h-36q-124 0 -161 70q-49 -20 -110 -20q-72 0 -121 33t-49 102q0 68 62.5 132.5t203.5 112.5v33q0 22 18 25l72 9q22 3 22 -20zM160 202q0 -45 69 -45q37 0 83 16v156q-70 -25 -111 -58t-41 -69zM287 615q-25 0 -41.5 15
t-16.5 39t16.5 39.5t41.5 15.5q24 0 40.5 -15.5t16.5 -39.5t-16 -39t-41 -15zM434 615q-25 0 -41.5 15t-16.5 39t16.5 39.5t41.5 15.5q24 0 40.5 -15.5t16.5 -39.5t-16 -39t-41 -15z" />
    <glyph glyph-name="uniFE95" unicode="&#x62a;" horiz-adv-x="910" arabic-form="isolated" 
d="M696 0h-401q-120 0 -183 55.5t-63 155.5v115q0 25 26 25h60q26 0 26 -25v-66q0 -83 34 -116.5t123 -33.5h367q29 0 38.5 10t9.5 41v226q0 25 26 25h60q26 0 26 -25v-262q0 -125 -149 -125zM381 473q-25 0 -41.5 15t-16.5 39t16.5 39.5t41.5 15.5q24 0 40.5 -15.5
t16.5 -39.5t-16 -39t-41 -15zM528 473q-25 0 -41.5 15t-16.5 39t16.5 39.5t41.5 15.5q24 0 40.5 -15.5t16.5 -39.5t-16 -39t-41 -15z" />
    <glyph glyph-name="uniFE96" unicode="&#x62a;" horiz-adv-x="955" arabic-form="final" 
d="M696 0h-401q-120 0 -183 55.5t-63 155.5v115q0 25 26 25h60q26 0 26 -25v-66q0 -83 34 -116.5t123 -33.5h367q29 0 38.5 10t9.5 41v226q0 25 26 25h60q26 0 26 -25v-248q32 -29 104 -29h6v-110h-6q-84 0 -123 50q-33 -50 -130 -50zM372 473q-25 0 -41.5 15t-16.5 39
t16.5 39.5t41.5 15.5q24 0 40.5 -15.5t16.5 -39.5t-16 -39t-41 -15zM519 473q-25 0 -41.5 15t-16.5 39t16.5 39.5t41.5 15.5q24 0 40.5 -15.5t16.5 -39.5t-16 -39t-41 -15z" />
    <glyph glyph-name="uniFE97" unicode="&#x62a;" horiz-adv-x="304" arabic-form="initial" 
d="M-10 110h88q29 0 38.5 10t9.5 41v226q0 25 26 25h60q26 0 26 -25v-262q0 -125 -149 -125h-99q-32 0 -32 55t32 55zM103 532q-25 0 -41.5 15t-16.5 39t16.5 39.5t41.5 15.5q24 0 40.5 -15.5t16.5 -39.5t-16 -39t-41 -15zM250 532q-25 0 -41.5 15t-16.5 39t16.5 39.5
t41.5 15.5q24 0 40.5 -15.5t16.5 -39.5t-16 -39t-41 -15z" />
    <glyph glyph-name="uniFE98" unicode="&#x62a;" horiz-adv-x="358" arabic-form="medial" 
d="M99 0h-109q-32 0 -32 55t32 55h98q29 0 38.5 10t9.5 41v226q0 25 26 25h60q26 0 26 -25v-248q32 -29 104 -29h6v-110h-6q-84 0 -123 50q-33 -50 -130 -50zM120 532q-25 0 -41.5 15t-16.5 39t16.5 39.5t41.5 15.5q24 0 40.5 -15.5t16.5 -39.5t-16 -39t-41 -15zM267 532
q-25 0 -41.5 15t-16.5 39t16.5 39.5t41.5 15.5q24 0 40.5 -15.5t16.5 -39.5t-16 -39t-41 -15z" />
    <glyph glyph-name="uniFE99" unicode="&#x62b;" horiz-adv-x="910" arabic-form="isolated" 
d="M696 0h-401q-120 0 -183 55.5t-63 155.5v115q0 25 26 25h60q26 0 26 -25v-66q0 -83 34 -116.5t123 -33.5h367q29 0 38.5 10t9.5 41v226q0 25 26 25h60q26 0 26 -25v-262q0 -125 -149 -125zM450 600q-25 0 -41 14.5t-16 39.5q0 24 16 39t41 15t41.5 -15t16.5 -39
q0 -25 -16.5 -39.5t-41.5 -14.5zM377 473q-25 0 -41.5 15t-16.5 39t16.5 39.5t41.5 15.5q24 0 40.5 -15.5t16.5 -39.5t-16 -39t-41 -15zM524 473q-25 0 -41.5 15t-16.5 39t16.5 39.5t41.5 15.5q24 0 40.5 -15.5t16.5 -39.5t-16 -39t-41 -15z" />
    <glyph glyph-name="uniFE9A" unicode="&#x62b;" horiz-adv-x="955" arabic-form="final" 
d="M696 0h-401q-120 0 -183 55.5t-63 155.5v115q0 25 26 25h60q26 0 26 -25v-66q0 -83 34 -116.5t123 -33.5h367q29 0 38.5 10t9.5 41v226q0 25 26 25h60q26 0 26 -25v-248q32 -29 104 -29h6v-110h-6q-84 0 -123 50q-33 -50 -130 -50zM441 600q-25 0 -41 14.5t-16 39.5
q0 24 16 39t41 15t41.5 -15t16.5 -39q0 -25 -16.5 -39.5t-41.5 -14.5zM368 473q-25 0 -41.5 15t-16.5 39t16.5 39.5t41.5 15.5q24 0 40.5 -15.5t16.5 -39.5t-16 -39t-41 -15zM515 473q-25 0 -41.5 15t-16.5 39t16.5 39.5t41.5 15.5q24 0 40.5 -15.5t16.5 -39.5t-16 -39
t-41 -15z" />
    <glyph glyph-name="uniFE9B" unicode="&#x62b;" horiz-adv-x="304" arabic-form="initial" 
d="M-10 110h88q29 0 38.5 10t9.5 41v226q0 25 26 25h60q26 0 26 -25v-262q0 -125 -149 -125h-99q-32 0 -32 55t32 55zM178 659q-25 0 -41 14.5t-16 39.5q0 24 16 39t41 15t41.5 -15t16.5 -39q0 -25 -16.5 -39.5t-41.5 -14.5zM105 532q-25 0 -41.5 15t-16.5 39t16.5 39.5
t41.5 15.5q24 0 40.5 -15.5t16.5 -39.5t-16 -39t-41 -15zM252 532q-25 0 -41.5 15t-16.5 39t16.5 39.5t41.5 15.5q24 0 40.5 -15.5t16.5 -39.5t-16 -39t-41 -15z" />
    <glyph glyph-name="uniFE9C" unicode="&#x62b;" horiz-adv-x="358" arabic-form="medial" 
d="M99 0h-109q-32 0 -32 55t32 55h98q29 0 38.5 10t9.5 41v226q0 25 26 25h60q26 0 26 -25v-248q32 -29 104 -29h6v-110h-6q-84 0 -123 50q-33 -50 -130 -50zM194 659q-25 0 -41 14.5t-16 39.5q0 24 16 39t41 15t41.5 -15t16.5 -39q0 -25 -16.5 -39.5t-41.5 -14.5zM121 532
q-25 0 -41.5 15t-16.5 39t16.5 39.5t41.5 15.5q24 0 40.5 -15.5t16.5 -39.5t-16 -39t-41 -15zM268 532q-25 0 -41.5 15t-16.5 39t16.5 39.5t41.5 15.5q24 0 40.5 -15.5t16.5 -39.5t-16 -39t-41 -15z" />
    <glyph glyph-name="uniFE9D" unicode="&#x62c;" horiz-adv-x="577" arabic-form="isolated" 
d="M495 -149q0 -25 -17 -40.5t-42 -15.5t-42 15.5t-17 40.5t17 40.5t42 15.5t42 -15.5t17 -40.5zM520 0h-230q-75 0 -108.5 -21t-33.5 -66q0 -44 38.5 -69.5t108.5 -25.5h12q18 0 25 -6.5t7 -21.5v-39q0 -21 -4 -27.5t-19 -9.5q-19 -4 -43 -4q-105 0 -172 53t-67 151
q0 196 259 196h113q-30 31 -46 103q-13 60 -38.5 85t-72.5 25q-51 0 -115 -37q-13 -6 -19 -4.5t-11 13.5l-23 54q-7 15 10 28q81 53 168 53q89 0 139.5 -48t72.5 -145q17 -79 52 -110q20 -19 20 -38v-63q0 -26 -23 -26z" />
    <glyph glyph-name="uniFE9E" unicode="&#x62c;" horiz-adv-x="598" arabic-form="final" 
d="M505 -149q0 -25 -17 -40.5t-42 -15.5t-42 15.5t-17 40.5t17 40.5t42 15.5t42 -15.5t17 -40.5zM598 0h-306q-75 0 -109.5 -21t-34.5 -66q0 -44 38.5 -69.5t108.5 -25.5h12q18 0 25 -6.5t7 -21.5v-39q0 -21 -4 -27.5t-19 -9.5q-19 -4 -43 -4q-105 0 -172 53t-67 151
q0 196 261 196h111q-30 31 -46 103q-13 60 -38.5 85t-72.5 25q-51 0 -115 -37q-13 -6 -19 -4.5t-11 13.5l-23 54q-7 15 10 28q81 53 168 53q89 0 140 -48t72 -145q9 -48 25 -76t48 -51h54v-110z" />
    <glyph glyph-name="uniFE9F" unicode="&#x62c;" horiz-adv-x="550" arabic-form="initial" 
d="M493 0h-503q-32 0 -32 54q0 56 32 56h390q-30 31 -46 103q-13 60 -38.5 85t-73.5 25q-51 0 -114 -37q-22 -12 -30 9l-24 54q-7 16 11 28q81 53 167 53q90 0 140.5 -48t71.5 -145q17 -78 53 -110q19 -18 19 -38v-63q0 -26 -23 -26zM221 -229q-25 0 -41 15t-16 40
q0 24 16 39t41 15t41.5 -15t16.5 -39q0 -25 -16.5 -40t-41.5 -15z" />
    <glyph glyph-name="uniFEA0" unicode="&#x62c;" horiz-adv-x="570" arabic-form="medial" 
d="M570 0h-580q-32 0 -32 54q0 56 32 56h390q-30 31 -45 103q-13 60 -39.5 85t-74.5 25q-51 0 -115 -37q-22 -12 -30 9l-23 54q-7 15 10 28q81 53 168 53q89 0 140 -48t71 -145q10 -48 26 -76t48 -51h54v-110zM222 -229q-25 0 -41 15t-16 40q0 24 16 39t41 15t41.5 -15
t16.5 -39q0 -25 -16.5 -40t-41.5 -15z" />
    <glyph glyph-name="uniFEA1" unicode="&#x62d;" horiz-adv-x="577" arabic-form="isolated" 
d="M520 0h-235q-71 0 -103.5 -21t-32.5 -66q0 -47 40 -71.5t109 -24.5q68 0 157 27q17 4 22.5 1.5t9.5 -14.5l18 -49q9 -26 -19 -37q-80 -35 -191 -35q-126 0 -193.5 52.5t-67.5 151.5q0 196 255 196h117q-30 31 -46 103q-13 60 -38.5 85t-72.5 25q-51 0 -115 -37
q-13 -6 -19 -4.5t-11 13.5l-23 54q-7 15 10 28q81 53 168 53q89 0 139.5 -48t72.5 -145q17 -79 52 -110q20 -19 20 -38v-63q0 -26 -23 -26z" />
    <glyph glyph-name="uniFEA2" unicode="&#x62d;" horiz-adv-x="598" arabic-form="final" 
d="M298 -183q68 0 157 27q17 4 22.5 1.5t9.5 -14.5l18 -49q9 -26 -19 -37q-80 -35 -191 -35q-126 0 -193.5 52.5t-67.5 151.5q0 196 255 196h117q-30 31 -46 103q-13 60 -38.5 85t-72.5 25q-51 0 -115 -37q-13 -6 -19 -4.5t-11 13.5l-23 54q-7 15 10 28q81 53 168 53
q89 0 140 -48t72 -145q9 -48 25 -76t48 -51h54v-110h-313q-71 0 -103.5 -21t-32.5 -66q0 -47 40 -71.5t109 -24.5z" />
    <glyph glyph-name="uniFEA3" unicode="&#x62d;" horiz-adv-x="550" arabic-form="initial" 
d="M493 0h-503q-32 0 -32 54q0 56 32 56h390q-30 31 -46 103q-13 60 -38.5 85t-73.5 25q-51 0 -114 -37q-22 -12 -30 9l-24 54q-7 16 11 28q81 53 167 53q90 0 140.5 -48t71.5 -145q17 -78 53 -110q19 -18 19 -38v-63q0 -26 -23 -26z" />
    <glyph glyph-name="uniFEA4" unicode="&#x62d;" horiz-adv-x="570" arabic-form="medial" 
d="M570 0h-580q-32 0 -32 54q0 56 32 56h390q-30 31 -45 103q-13 60 -39.5 85t-74.5 25q-51 0 -115 -37q-22 -12 -30 9l-23 54q-7 15 10 28q81 53 168 53q89 0 140 -48t71 -145q10 -48 26 -76t48 -51h54v-110z" />
    <glyph glyph-name="uniFEA5" unicode="&#x62e;" horiz-adv-x="577" arabic-form="isolated" 
d="M520 0h-235q-71 0 -103.5 -21t-32.5 -66q0 -47 40 -71.5t109 -24.5q68 0 157 27q17 4 22.5 1.5t9.5 -14.5l18 -49q9 -26 -19 -37q-80 -35 -191 -35q-126 0 -193.5 52.5t-67.5 151.5q0 196 255 196h117q-30 31 -46 103q-13 60 -38.5 85t-72.5 25q-51 0 -115 -37
q-13 -6 -19 -4.5t-11 13.5l-23 54q-7 15 10 28q81 53 168 53q89 0 139.5 -48t72.5 -145q17 -79 52 -110q20 -19 20 -38v-63q0 -26 -23 -26zM274 540q-25 0 -41 15t-16 39t16.5 39.5t40.5 15.5q25 0 41.5 -15.5t16.5 -39.5t-16.5 -39t-41.5 -15z" />
    <glyph glyph-name="uniFEA6" unicode="&#x62e;" horiz-adv-x="598" arabic-form="final" 
d="M298 -183q68 0 157 27q17 4 22.5 1.5t9.5 -14.5l18 -49q9 -26 -19 -37q-80 -35 -191 -35q-126 0 -193.5 52.5t-67.5 151.5q0 196 255 196h117q-30 31 -46 103q-13 60 -38.5 85t-72.5 25q-51 0 -115 -37q-13 -6 -19 -4.5t-11 13.5l-23 54q-7 15 10 28q81 53 168 53
q89 0 140 -48t72 -145q9 -48 25 -76t48 -51h54v-110h-313q-71 0 -103.5 -21t-32.5 -66q0 -47 40 -71.5t109 -24.5zM274 540q-25 0 -41 15t-16 39t16.5 39.5t40.5 15.5q25 0 41.5 -15.5t16.5 -39.5t-16.5 -39t-41.5 -15z" />
    <glyph glyph-name="uniFEA7" unicode="&#x62e;" horiz-adv-x="550" arabic-form="initial" 
d="M493 0h-503q-32 0 -32 54q0 56 32 56h390q-30 31 -46 103q-13 60 -38.5 85t-73.5 25q-51 0 -114 -37q-22 -12 -30 9l-24 54q-7 16 11 28q81 53 167 53q90 0 140.5 -48t71.5 -145q17 -78 53 -110q19 -18 19 -38v-63q0 -26 -23 -26zM248 540q-25 0 -41 15t-16 39t16.5 39.5
t40.5 15.5q25 0 41.5 -15.5t16.5 -39.5t-16.5 -39t-41.5 -15z" />
    <glyph glyph-name="uniFEA8" unicode="&#x62e;" horiz-adv-x="570" arabic-form="medial" 
d="M570 0h-580q-32 0 -32 54q0 56 32 56h390q-30 31 -45 103q-13 60 -39.5 85t-74.5 25q-51 0 -115 -37q-22 -12 -30 9l-23 54q-7 15 10 28q81 53 168 53q89 0 140 -48t71 -145q10 -48 26 -76t48 -51h54v-110zM248 540q-25 0 -41 15t-16 39t16.5 39.5t40.5 15.5
q25 0 41.5 -15.5t16.5 -39.5t-16.5 -39t-41.5 -15z" />
    <glyph glyph-name="uniFEA9" unicode="&#x62f;" horiz-adv-x="543" arabic-form="isolated" 
d="M112 408q52 22 139 22q120 0 177.5 -51t57.5 -167v-87q0 -125 -146 -125h-283q-24 0 -24 25v60q0 25 24 25h260q35 0 46 11.5t11 45.5v40q0 64 -31 90t-104 26q-24 0 -65.5 -5t-56.5 -5q-21 0 -21 22v47q0 19 16 26z" />
    <glyph glyph-name="uniFEAA" unicode="&#x62f;" horiz-adv-x="593" arabic-form="final" 
d="M374 110v97q0 64 -30.5 90t-103.5 26q-25 0 -66.5 -5t-56.5 -5q-21 0 -21 22v47q0 19 16 26q52 22 140 22q119 0 176.5 -51t57.5 -167v-102h107v-110h-537q-23 0 -23 25v59q0 26 23 26h318z" />
    <glyph glyph-name="uniFEAB" unicode="&#x630;" horiz-adv-x="543" arabic-form="isolated" 
d="M112 408q52 22 139 22q120 0 177.5 -51t57.5 -167v-87q0 -125 -146 -125h-283q-24 0 -24 25v60q0 25 24 25h260q35 0 46 11.5t11 45.5v40q0 64 -31 90t-104 26q-24 0 -65.5 -5t-56.5 -5q-21 0 -21 22v47q0 19 16 26zM255 540q-25 0 -41 15t-16 39t16.5 39.5t40.5 15.5
q25 0 41.5 -15.5t16.5 -39.5t-16.5 -39t-41.5 -15z" />
    <glyph glyph-name="uniFEAC" unicode="&#x630;" horiz-adv-x="593" arabic-form="final" 
d="M374 110v97q0 64 -30.5 90t-103.5 26q-25 0 -66.5 -5t-56.5 -5q-21 0 -21 22v47q0 19 16 26q52 22 140 22q119 0 176.5 -51t57.5 -167v-102h107v-110h-537q-23 0 -23 25v59q0 26 23 26h318zM272 540q-25 0 -41 15t-16 39t16.5 39.5t40.5 15.5q25 0 41.5 -15.5t16.5 -39.5
t-16.5 -39t-41.5 -15z" />
    <glyph glyph-name="uniFEAD" unicode="&#x631;" horiz-adv-x="322" arabic-form="isolated" 
d="M257 387v-274q0 -129 -41.5 -196t-165.5 -133q-21 -12 -33 11l-28 51q-10 19 17 34q83 47 111 95.5t28 150.5v261q0 25 26 25h60q26 0 26 -25z" />
    <glyph glyph-name="uniFEAE" unicode="&#x631;" horiz-adv-x="351" arabic-form="final" 
d="M257 387v-277h94v-110h-104q-14 -70 -58.5 -118t-138.5 -98q-21 -12 -33 11l-28 51q-10 19 17 34q83 47 111 95.5t28 150.5v261q0 25 26 25h60q26 0 26 -25z" />
    <glyph glyph-name="uniFEAF" unicode="&#x632;" horiz-adv-x="322" arabic-form="isolated" 
d="M257 387v-274q0 -129 -41.5 -196t-165.5 -133q-21 -12 -33 11l-28 51q-10 19 17 34q83 47 111 95.5t28 150.5v261q0 25 26 25h60q26 0 26 -25zM206 532q-25 0 -41 15t-16 39t16.5 39.5t40.5 15.5q25 0 41.5 -15.5t16.5 -39.5t-16.5 -39t-41.5 -15z" />
    <glyph glyph-name="uniFEB0" unicode="&#x632;" horiz-adv-x="351" arabic-form="final" 
d="M257 387v-277h94v-110h-104q-14 -70 -58.5 -118t-138.5 -98q-21 -12 -33 11l-28 51q-10 19 17 34q83 47 111 95.5t28 150.5v261q0 25 26 25h60q26 0 26 -25zM206 532q-25 0 -41 15t-16 39t16.5 39.5t40.5 15.5q25 0 41.5 -15.5t16.5 -39.5t-16.5 -39t-41.5 -15z" />
    <glyph glyph-name="uniFEB1" unicode="&#x633;" horiz-adv-x="1167" arabic-form="isolated" 
d="M43 32q0 88 40 162q10 18 18 21.5t22 -2.5l48 -21q14 -6 16.5 -13.5t-4.5 -24.5q-27 -62 -25 -122q0 -71 42 -107.5t123 -36.5q164 0 164 160v250q0 24 24 24h65q24 0 24 -24v-160q33 -30 77 -30q62 0 62 67v123q0 24 25 24h63q24 0 24 -24v-159q33 -30 77 -30
q64 0 64 66v213q0 24 23 24h65q25 0 25 -24v-240q0 -63 -40 -105.5t-110 -42.5q-81 0 -130 59q-39 -59 -122 -59q-62 0 -104 33q0 -124 -74.5 -188.5t-204.5 -64.5t-203.5 63.5t-73.5 188.5z" />
    <glyph glyph-name="uniFEB2" unicode="&#x633;" horiz-adv-x="1213" arabic-form="final" 
d="M43 31q0 89 40 163q10 18 18 21.5t22 -2.5l48 -21q14 -6 16.5 -13.5t-4.5 -24.5q-27 -62 -25 -122q0 -71 42 -107.5t123 -36.5q85 0 124.5 40t39.5 120v250q0 24 24 24h65q24 0 24 -24v-160q38 -31 79 -31q60 0 60 68v123q0 24 26 24h63q24 0 24 -24v-159q36 -32 78 -32
q61 0 61 68v213q0 24 23 24h65q25 0 25 -24v-223q0 -17 -1 -26q30 -30 106 -30h4v-109h-6q-92 0 -129 59q-39 -59 -123 -59q-81 0 -130 59q-39 -59 -122 -59q-62 0 -104 33q0 -124 -74 -188.5t-205 -64.5q-130 0 -203.5 63.5t-73.5 187.5z" />
    <glyph glyph-name="uniFEB3" unicode="&#x633;" horiz-adv-x="826" arabic-form="initial" 
d="M-10 110h100q33 0 45 16t12 56v116q0 24 24 24h65q24 0 24 -24v-160q38 -31 79 -31q61 0 61 68v123q0 24 25 24h64q24 0 24 -24v-159q35 -32 77 -32q60 0 60 68v213q0 24 24 24h65q24 0 24 -24v-240q0 -64 -39.5 -106t-108.5 -42q-80 0 -129 59q-39 -59 -123 -59
q-80 0 -126 55q-36 -55 -134 -55h-113q-32 0 -32 55t32 55z" />
    <glyph glyph-name="uniFEB4" unicode="&#x633;" horiz-adv-x="868" arabic-form="medial" 
d="M99 0h-109q-32 0 -32 55t32 55h96q56 0 56 57v131q0 24 24 24h65q24 0 24 -24v-160q38 -31 79 -31q61 0 61 68v123q0 24 25 24h63q24 0 24 -24v-159q36 -32 78 -32q61 0 61 68v213q0 24 23 24h65q25 0 25 -24v-227q0 -15 -1 -22q30 -29 104 -29h6v-110h-6q-92 0 -129 59
q-39 -59 -123 -59q-81 0 -130 59q-39 -59 -122 -59q-79 0 -125 55q-38 -55 -134 -55z" />
    <glyph glyph-name="uniFEB5" unicode="&#x634;" horiz-adv-x="1167" arabic-form="isolated" 
d="M43 32q0 88 40 162q10 18 18 21.5t22 -2.5l48 -21q14 -6 16.5 -13.5t-4.5 -24.5q-27 -62 -25 -122q0 -71 42 -107.5t123 -36.5q164 0 164 160v250q0 24 24 24h65q24 0 24 -24v-160q33 -30 77 -30q62 0 62 67v123q0 24 25 24h63q24 0 24 -24v-159q33 -30 77 -30
q64 0 64 66v213q0 24 23 24h65q25 0 25 -24v-240q0 -63 -40 -105.5t-110 -42.5q-81 0 -130 59q-39 -59 -122 -59q-62 0 -104 33q0 -124 -74.5 -188.5t-204.5 -64.5t-203.5 63.5t-73.5 188.5zM798 659q-25 0 -41 14.5t-16 39.5q0 24 16 39t41 15t41.5 -15t16.5 -39
q0 -25 -16.5 -39.5t-41.5 -14.5zM725 532q-25 0 -41.5 15t-16.5 39t16.5 39.5t41.5 15.5q24 0 40.5 -15.5t16.5 -39.5t-16 -39t-41 -15zM872 532q-25 0 -41.5 15t-16.5 39t16.5 39.5t41.5 15.5q24 0 40.5 -15.5t16.5 -39.5t-16 -39t-41 -15z" />
    <glyph glyph-name="uniFEB6" unicode="&#x634;" horiz-adv-x="1213" arabic-form="final" 
d="M43 31q0 89 40 163q10 18 18 21.5t22 -2.5l48 -21q14 -6 16.5 -13.5t-4.5 -24.5q-27 -62 -25 -122q0 -71 42 -107.5t123 -36.5q85 0 124.5 40t39.5 120v250q0 24 24 24h65q24 0 24 -24v-160q38 -31 79 -31q60 0 60 68v123q0 24 26 24h63q24 0 24 -24v-159q36 -32 78 -32
q61 0 61 68v213q0 24 23 24h65q25 0 25 -24v-223q0 -17 -1 -26q30 -30 106 -30h4v-109h-6q-92 0 -129 59q-39 -59 -123 -59q-81 0 -130 59q-39 -59 -122 -59q-62 0 -104 33q0 -124 -74 -188.5t-205 -64.5q-130 0 -203.5 63.5t-73.5 187.5zM799 659q-25 0 -41 14.5t-16 39.5
q0 24 16 39t41 15t41.5 -15t16.5 -39q0 -25 -16.5 -39.5t-41.5 -14.5zM726 532q-25 0 -41.5 15t-16.5 39t16.5 39.5t41.5 15.5q24 0 40.5 -15.5t16.5 -39.5t-16 -39t-41 -15zM873 532q-25 0 -41.5 15t-16.5 39t16.5 39.5t41.5 15.5q24 0 40.5 -15.5t16.5 -39.5t-16 -39
t-41 -15z" />
    <glyph glyph-name="uniFEB7" unicode="&#x634;" horiz-adv-x="826" arabic-form="initial" 
d="M-10 110h100q33 0 45 16t12 56v116q0 24 24 24h65q24 0 24 -24v-160q38 -31 79 -31q61 0 61 68v123q0 24 25 24h64q24 0 24 -24v-159q35 -32 77 -32q60 0 60 68v213q0 24 24 24h65q24 0 24 -24v-240q0 -64 -39.5 -106t-108.5 -42q-80 0 -129 59q-39 -59 -123 -59
q-80 0 -126 55q-36 -55 -134 -55h-113q-32 0 -32 55t32 55zM457 659q-25 0 -41 14.5t-16 39.5q0 24 16 39t41 15t41.5 -15t16.5 -39q0 -25 -16.5 -39.5t-41.5 -14.5zM384 532q-25 0 -41.5 15t-16.5 39t16.5 39.5t41.5 15.5q24 0 40.5 -15.5t16.5 -39.5t-16 -39t-41 -15z
M531 532q-25 0 -41.5 15t-16.5 39t16.5 39.5t41.5 15.5q24 0 40.5 -15.5t16.5 -39.5t-16 -39t-41 -15z" />
    <glyph glyph-name="uniFEB8" unicode="&#x634;" horiz-adv-x="868" arabic-form="medial" 
d="M99 0h-109q-32 0 -32 55t32 55h96q56 0 56 57v131q0 24 24 24h65q24 0 24 -24v-160q38 -31 79 -31q61 0 61 68v123q0 24 25 24h63q24 0 24 -24v-159q36 -32 78 -32q61 0 61 68v213q0 24 23 24h65q25 0 25 -24v-227q0 -15 -1 -22q30 -29 104 -29h6v-110h-6q-92 0 -129 59
q-39 -59 -123 -59q-81 0 -130 59q-39 -59 -122 -59q-79 0 -125 55q-38 -55 -134 -55zM457 659q-25 0 -41 14.5t-16 39.5q0 24 16 39t41 15t41.5 -15t16.5 -39q0 -25 -16.5 -39.5t-41.5 -14.5zM384 532q-25 0 -41.5 15t-16.5 39t16.5 39.5t41.5 15.5q24 0 40.5 -15.5
t16.5 -39.5t-16 -39t-41 -15zM531 532q-25 0 -41.5 15t-16.5 39t16.5 39.5t41.5 15.5q24 0 40.5 -15.5t16.5 -39.5t-16 -39t-41 -15z" />
    <glyph glyph-name="uniFEB9" unicode="&#x635;" horiz-adv-x="1135" arabic-form="isolated" 
d="M869 0h-271q-12 -109 -83 -164.5t-195 -55.5q-130 0 -203.5 63.5t-73.5 188.5q0 83 41 163q8 16 15.5 20t22.5 -2l47 -21q14 -5 17 -12.5t-3 -24.5q-25 -60 -25 -122q0 -146 165 -146q85 0 125 40t40 121v341q0 23 24 23h65q23 0 23 -23v-120q121 163 270 163
q101 0 159.5 -67.5t58.5 -181.5q0 -100 -49.5 -141.5t-169.5 -41.5zM599 110h290q47 0 65.5 18t18.5 62q0 63 -29.5 99t-80.5 36q-69 0 -137.5 -61t-126.5 -154z" />
    <glyph glyph-name="uniFEBA" unicode="&#x635;" horiz-adv-x="1166" arabic-form="final" 
d="M974 110v70q0 145 -111 145q-69 0 -137.5 -61t-126.5 -154h375zM1166 0h-568q-12 -109 -83 -164.5t-195 -55.5q-130 0 -203.5 63.5t-73.5 188.5q0 83 41 163q8 16 15.5 20t22.5 -2l47 -21q14 -5 17 -12.5t-3 -24.5q-25 -60 -25 -122q0 -146 165 -146q85 0 125 40t40 121
v341q0 23 24 23h65q23 0 23 -23v-120q121 163 270 163q101 0 159.5 -67.5t58.5 -181.5v-73h78v-110z" />
    <glyph glyph-name="uniFEBB" unicode="&#x635;" horiz-adv-x="735" arabic-form="initial" 
d="M469 0h-479q-32 0 -32 54q0 56 32 56h98v279q0 23 26 23h62q25 0 25 -23v-120q121 163 270 163q101 0 159 -67.5t58 -181.5q0 -100 -49.5 -141.5t-169.5 -41.5zM200 110h289q47 0 65.5 18t18.5 62q0 63 -29 99t-80 36q-69 0 -137.5 -61t-126.5 -154z" />
    <glyph glyph-name="uniFEBC" unicode="&#x635;" horiz-adv-x="766" arabic-form="medial" 
d="M-10 110h98v279q0 23 26 23h62q25 0 25 -23v-120q120 163 269 163q101 0 159.5 -67.5t58.5 -181.5v-73h78v-110h-776q-32 0 -32 54q0 56 32 56zM463 325q-70 0 -138.5 -61.5t-124.5 -153.5h374v70q0 74 -30 109.5t-81 35.5z" />
    <glyph glyph-name="uniFEBD" unicode="&#x636;" horiz-adv-x="1135" arabic-form="isolated" 
d="M869 0h-271q-12 -109 -83 -164.5t-195 -55.5q-130 0 -203.5 63.5t-73.5 188.5q0 83 41 163q8 16 15.5 20t22.5 -2l47 -21q14 -5 17 -12.5t-3 -24.5q-25 -60 -25 -122q0 -146 165 -146q85 0 125 40t40 121v341q0 23 24 23h65q23 0 23 -23v-120q121 163 270 163
q101 0 159.5 -67.5t58.5 -181.5q0 -100 -49.5 -141.5t-169.5 -41.5zM599 110h290q47 0 65.5 18t18.5 62q0 63 -29.5 99t-80.5 36q-69 0 -137.5 -61t-126.5 -154zM864 542q-25 0 -41 15t-16 39t16.5 39.5t40.5 15.5q25 0 41.5 -15.5t16.5 -39.5t-16.5 -39t-41.5 -15z" />
    <glyph glyph-name="uniFEBE" unicode="&#x636;" horiz-adv-x="1166" arabic-form="final" 
d="M974 110v70q0 145 -111 145q-69 0 -137.5 -61t-126.5 -154h375zM1166 0h-568q-12 -109 -83 -164.5t-195 -55.5q-130 0 -203.5 63.5t-73.5 188.5q0 83 41 163q8 16 15.5 20t22.5 -2l47 -21q14 -5 17 -12.5t-3 -24.5q-25 -60 -25 -122q0 -146 165 -146q85 0 125 40t40 121
v341q0 23 24 23h65q23 0 23 -23v-120q121 163 270 163q101 0 159.5 -67.5t58.5 -181.5v-73h78v-110zM868 542q-25 0 -41 15t-16 39t16.5 39.5t40.5 15.5q25 0 41.5 -15.5t16.5 -39.5t-16.5 -39t-41.5 -15z" />
    <glyph glyph-name="uniFEBF" unicode="&#x636;" horiz-adv-x="735" arabic-form="initial" 
d="M469 0h-479q-32 0 -32 54q0 56 32 56h98v279q0 23 26 23h62q25 0 25 -23v-120q121 163 270 163q101 0 159 -67.5t58 -181.5q0 -100 -49.5 -141.5t-169.5 -41.5zM200 110h289q47 0 65.5 18t18.5 62q0 63 -29 99t-80 36q-69 0 -137.5 -61t-126.5 -154zM469 542
q-25 0 -41 15t-16 39t16.5 39.5t40.5 15.5q25 0 41.5 -15.5t16.5 -39.5t-16.5 -39t-41.5 -15z" />
    <glyph glyph-name="uniFEC0" unicode="&#x636;" horiz-adv-x="766" arabic-form="medial" 
d="M-10 110h98v279q0 23 26 23h62q25 0 25 -23v-120q120 163 269 163q101 0 159.5 -67.5t58.5 -181.5v-73h78v-110h-776q-32 0 -32 54q0 56 32 56zM463 325q-70 0 -138.5 -61.5t-124.5 -153.5h374v70q0 74 -30 109.5t-81 35.5zM459 542q-25 0 -41 15t-16 39t16.5 39.5
t40.5 15.5q25 0 41.5 -15.5t16.5 -39.5t-16.5 -39t-41.5 -15z" />
    <glyph glyph-name="uniFEC1" unicode="&#x637;" horiz-adv-x="812" arabic-form="isolated" 
d="M546 0h-488q-24 0 -24 25v59q0 26 24 26h107v570q0 21 19 24l72 10q10 1 15.5 -4.5t5.5 -16.5v-424q121 163 270 163q101 0 159 -67.5t58 -181.5q0 -100 -49 -141.5t-169 -41.5zM276 110h290q47 0 65.5 18t18.5 62q0 63 -29.5 99t-80.5 36q-69 0 -137.5 -61t-126.5 -154z
" />
    <glyph glyph-name="uniFEC2" unicode="&#x637;" horiz-adv-x="842" arabic-form="final" 
d="M842 0h-784q-24 0 -24 25v59q0 26 24 26h106v570q0 21 19 24l72 10q10 1 15.5 -4.5t5.5 -16.5v-424q121 163 271 163q101 0 159 -67.5t58 -181.5v-73h78v-110zM540 325q-70 0 -139.5 -62t-125.5 -153h376v70q0 74 -30 109.5t-81 35.5z" />
    <glyph glyph-name="uniFEC3" unicode="&#x637;" horiz-adv-x="735" arabic-form="initial" 
d="M469 0h-479q-32 0 -32 54q0 56 32 56h98v570q0 21 19 24l72 10q10 1 15.5 -4.5t5.5 -16.5v-424q121 163 271 163q101 0 159 -67.5t58 -181.5q0 -100 -49.5 -141.5t-169.5 -41.5zM199 110h290q47 0 65.5 18t18.5 62q0 63 -29 99t-80 36q-69 0 -138 -61t-127 -154z" />
    <glyph glyph-name="uniFEC4" unicode="&#x637;" horiz-adv-x="766" arabic-form="medial" 
d="M200 693v-424q120 163 270 163q101 0 159.5 -67.5t58.5 -181.5v-73h78v-110h-776q-32 0 -32 54q0 56 32 56h98v570q0 21 19 24l72 10q10 1 15.5 -4.5t5.5 -16.5zM463 325q-70 0 -139 -62t-125 -153h375v70q0 74 -30 109.5t-81 35.5z" />
    <glyph glyph-name="uniFEC5" unicode="&#x638;" horiz-adv-x="812" arabic-form="isolated" 
d="M546 0h-488q-24 0 -24 25v59q0 26 24 26h107v570q0 21 19 24l72 10q10 1 15.5 -4.5t5.5 -16.5v-424q121 163 270 163q101 0 159 -67.5t58 -181.5q0 -100 -49 -141.5t-169 -41.5zM276 110h290q47 0 65.5 18t18.5 62q0 63 -29.5 99t-80.5 36q-69 0 -137.5 -61t-126.5 -154z
M537 542q-25 0 -41 15t-16 39t16.5 39.5t40.5 15.5q25 0 41.5 -15.5t16.5 -39.5t-16.5 -39t-41.5 -15z" />
    <glyph glyph-name="uniFEC6" unicode="&#x638;" horiz-adv-x="842" arabic-form="final" 
d="M842 0h-784q-24 0 -24 25v59q0 26 24 26h106v570q0 21 19 24l72 10q10 1 15.5 -4.5t5.5 -16.5v-424q121 163 271 163q101 0 159 -67.5t58 -181.5v-73h78v-110zM540 325q-70 0 -139.5 -62t-125.5 -153h376v70q0 74 -30 109.5t-81 35.5zM537 542q-25 0 -41 15t-16 39
t16.5 39.5t40.5 15.5q25 0 41.5 -15.5t16.5 -39.5t-16.5 -39t-41.5 -15z" />
    <glyph glyph-name="uniFEC7" unicode="&#x638;" horiz-adv-x="735" arabic-form="initial" 
d="M469 0h-479q-32 0 -32 54q0 56 32 56h98v570q0 21 19 24l72 10q10 1 15.5 -4.5t5.5 -16.5v-424q121 163 271 163q101 0 159 -67.5t58 -181.5q0 -100 -49.5 -141.5t-169.5 -41.5zM199 110h290q47 0 65.5 18t18.5 62q0 63 -29 99t-80 36q-69 0 -138 -61t-127 -154zM459 542
q-25 0 -41 15t-16 39t16.5 39.5t40.5 15.5q25 0 41.5 -15.5t16.5 -39.5t-16.5 -39t-41.5 -15z" />
    <glyph glyph-name="uniFEC8" unicode="&#x638;" horiz-adv-x="766" arabic-form="medial" 
d="M200 693v-424q120 163 270 163q101 0 159.5 -67.5t58.5 -181.5v-73h78v-110h-776q-32 0 -32 54q0 56 32 56h98v570q0 21 19 24l72 10q10 1 15.5 -4.5t5.5 -16.5zM463 325q-70 0 -139 -62t-125 -153h375v70q0 74 -30 109.5t-81 35.5zM459 542q-25 0 -41 15t-16 39
t16.5 39.5t40.5 15.5q25 0 41.5 -15.5t16.5 -39.5t-16.5 -39t-41.5 -15z" />
    <glyph glyph-name="uniFEC9" unicode="&#x639;" horiz-adv-x="556" arabic-form="isolated" 
d="M296 -290q-126 0 -194 52.5t-68 151.5q0 138 129 178q-63 70 -63 154q0 85 57.5 134.5t145.5 49.5q83 0 148 -42q18 -11 11 -27l-24 -53q-5 -11 -11.5 -13t-19.5 4q-51 24 -94 24q-49 0 -73.5 -24.5t-24.5 -65.5q0 -65 57 -123h224q22 0 22 -26v-59q0 -25 -22 -25h-207
q-73 0 -106.5 -21t-33.5 -66q0 -47 40.5 -71.5t110.5 -24.5t158 27q16 4 22 1.5t10 -14.5l19 -49q9 -25 -19 -37q-83 -35 -194 -35z" />
    <glyph glyph-name="uniFECA" unicode="&#x639;" horiz-adv-x="571" arabic-form="final" 
d="M537 110h34v-110h-33q-164 0 -238 64q-84 -54 -118 -90t-34 -75q0 -40 37 -60.5t98 -21.5q70 0 161 27q16 4 22 1.5t10 -14.5l19 -49q9 -25 -19 -37q-83 -35 -189 -35q-68 0 -122.5 16.5t-92.5 60.5t-38 110q0 72 50.5 127t148.5 117l-18 29q-37 61 -63.5 88t-63.5 43
q-13 6 -10 26l13 66q3 15 18 19q130 32 219 32q96 0 144.5 -33t48.5 -94q0 -49 -27.5 -93t-95.5 -95q43 -19 139 -19zM407 292q0 45 -77 45q-57 0 -109 -15q41 -35 85 -107l12 -19q49 33 69 54.5t20 41.5z" />
    <glyph glyph-name="uniFECB" unicode="&#x639;" horiz-adv-x="525" arabic-form="initial" 
d="M479 0h-489q-32 0 -32 54q0 56 32 56h139q-49 62 -49 136q0 85 57.5 134.5t145.5 49.5q83 0 148 -42q18 -11 11 -27l-24 -53q-9 -20 -31 -9q-51 24 -95 24q-48 0 -72.5 -24.5t-24.5 -65.5q0 -65 57 -123h227q22 0 22 -26v-59q0 -25 -22 -25z" />
    <glyph glyph-name="uniFECC" unicode="&#x639;" horiz-adv-x="576" arabic-form="medial" 
d="M31 0h-41q-32 0 -32 54q0 56 32 56h34q118 0 212 34l-16 26q-37 61 -63.5 88t-63.5 43q-13 5 -10 26l13 66q3 15 17 19q131 32 219 32q97 0 145.5 -33t48.5 -94q0 -48 -29.5 -98t-82.5 -93q40 -16 128 -16h34v-110h-33q-157 0 -235 60q-126 -60 -277 -60zM412 292
q0 45 -77 45q-57 0 -109 -15q41 -35 85 -107l18 -27q39 26 61 54t22 50z" />
    <glyph glyph-name="uniFECD" unicode="&#x63a;" horiz-adv-x="556" arabic-form="isolated" 
d="M296 -290q-126 0 -194 52.5t-68 151.5q0 138 129 178q-63 70 -63 154q0 85 57.5 134.5t145.5 49.5q83 0 148 -42q18 -11 11 -27l-24 -53q-5 -11 -11.5 -13t-19.5 4q-51 24 -94 24q-49 0 -73.5 -24.5t-24.5 -65.5q0 -65 57 -123h224q22 0 22 -26v-59q0 -25 -22 -25h-207
q-73 0 -106.5 -21t-33.5 -66q0 -47 40.5 -71.5t110.5 -24.5t158 27q16 4 22 1.5t10 -14.5l19 -49q9 -25 -19 -37q-83 -35 -194 -35zM293 540q-25 0 -41 15t-16 39t16.5 39.5t40.5 15.5q25 0 41.5 -15.5t16.5 -39.5t-16.5 -39t-41.5 -15z" />
    <glyph glyph-name="uniFECE" unicode="&#x63a;" horiz-adv-x="571" arabic-form="final" 
d="M537 110h34v-110h-33q-164 0 -238 64q-84 -54 -118 -90t-34 -75q0 -40 37 -60.5t98 -21.5q70 0 161 27q16 4 22 1.5t10 -14.5l19 -49q9 -25 -19 -37q-83 -35 -189 -35q-68 0 -122.5 16.5t-92.5 60.5t-38 110q0 72 50.5 127t148.5 117l-18 29q-37 61 -63.5 88t-63.5 43
q-13 6 -10 26l13 66q3 15 18 19q130 32 219 32q96 0 144.5 -33t48.5 -94q0 -49 -27.5 -93t-95.5 -95q43 -19 139 -19zM407 292q0 45 -77 45q-57 0 -109 -15q41 -35 85 -107l12 -19q49 33 69 54.5t20 41.5zM303 551q-25 0 -41 15t-16 39t16.5 39.5t40.5 15.5q25 0 41.5 -15.5
t16.5 -39.5t-16.5 -39t-41.5 -15z" />
    <glyph glyph-name="uniFECF" unicode="&#x63a;" horiz-adv-x="525" arabic-form="initial" 
d="M479 0h-489q-32 0 -32 54q0 56 32 56h139q-49 62 -49 136q0 85 57.5 134.5t145.5 49.5q83 0 148 -42q18 -11 11 -27l-24 -53q-9 -20 -31 -9q-51 24 -95 24q-48 0 -72.5 -24.5t-24.5 -65.5q0 -65 57 -123h227q22 0 22 -26v-59q0 -25 -22 -25zM280 540q-25 0 -41 15t-16 39
t16.5 39.5t40.5 15.5q25 0 41.5 -15.5t16.5 -39.5t-16.5 -39t-41.5 -15z" />
    <glyph glyph-name="uniFED0" unicode="&#x63a;" horiz-adv-x="576" arabic-form="medial" 
d="M31 0h-41q-32 0 -32 54q0 56 32 56h34q118 0 212 34l-16 26q-37 61 -63.5 88t-63.5 43q-13 5 -10 26l13 66q3 15 17 19q131 32 219 32q97 0 145.5 -33t48.5 -94q0 -48 -29.5 -98t-82.5 -93q40 -16 128 -16h34v-110h-33q-157 0 -235 60q-126 -60 -277 -60zM412 292
q0 45 -77 45q-57 0 -109 -15q41 -35 85 -107l18 -27q39 26 61 54t22 50zM310 551q-25 0 -41 15t-16 39t16.5 39.5t40.5 15.5q25 0 41.5 -15.5t16.5 -39.5t-16.5 -39t-41.5 -15z" />
    <glyph glyph-name="uniFED1" unicode="&#x641;" horiz-adv-x="1015" arabic-form="isolated" 
d="M718 110h41q41 0 65.5 23.5t24.5 73.5q0 99 -82 99q-80 0 -80 -99q0 -59 31 -97zM318 110h286q-31 50 -31 113q0 84 52 136.5t143 52.5q92 0 143.5 -53t51.5 -150q0 -103 -56 -156t-159 -53h-453q-120 0 -183 55.5t-63 155.5v115q0 25 26 25h60q26 0 26 -25v-66
q0 -83 34 -116.5t123 -33.5zM770 522q-25 0 -41 15t-16 39t16.5 39.5t40.5 15.5q25 0 41.5 -15.5t16.5 -39.5t-16.5 -39t-41.5 -15z" />
    <glyph glyph-name="uniFED2" unicode="&#x641;" horiz-adv-x="1017" arabic-form="final" 
d="M759 141q44 23 66.5 55t22.5 60q0 30 -24 50t-65 20t-65 -20t-24 -50q0 -28 22.5 -60t66.5 -55zM1017 110v-110h-61q-111 0 -197 34q-86 -34 -197 -34h-268q-120 0 -183 55.5t-63 155.5v115q0 25 26 25h60q26 0 26 -25v-66q0 -83 34 -116.5t123 -33.5h245q52 0 76 3
q-83 68 -83 155q0 69 56 117t148 48t148 -48t56 -117q0 -87 -83 -155q24 -3 76 -3h61zM763 540q-25 0 -41 15t-16 39t16.5 39.5t40.5 15.5q25 0 41.5 -15.5t16.5 -39.5t-16.5 -39t-41.5 -15z" />
    <glyph glyph-name="uniFED3" unicode="&#x641;" horiz-adv-x="521" arabic-form="initial" 
d="M-10 110h116q-31 50 -31 113q0 84 52.5 136.5t145.5 52.5q92 0 144.5 -53t52.5 -150q0 -103 -57 -156t-161 -53h-262q-32 0 -32 55t32 55zM221 110h43q42 0 67 23.5t25 73.5q0 99 -83 99q-84 0 -84 -99q0 -57 32 -97zM270 522q-25 0 -41 15t-16 39t16.5 39.5t40.5 15.5
q25 0 41.5 -15.5t16.5 -39.5t-16.5 -39t-41.5 -15z" />
    <glyph glyph-name="uniFED4" unicode="&#x641;" horiz-adv-x="517" arabic-form="medial" 
d="M-10 110h71q52 0 76 3q-83 68 -83 155q0 69 55.5 117t147.5 48q93 0 149 -48t56 -117q0 -87 -83 -155q24 -3 76 -3h62v-110h-62q-110 0 -198 34q-86 -34 -196 -34h-71q-32 0 -32 55t32 55zM258 141q44 23 66.5 55t22.5 60q0 31 -23 50.5t-66 19.5t-66 -19.5t-23 -50.5
q0 -28 22.5 -60t66.5 -55zM260 540q-25 0 -41 15t-16 39t16.5 39.5t40.5 15.5q25 0 41.5 -15.5t16.5 -39.5t-16.5 -39t-41.5 -15z" />
    <glyph glyph-name="uniFED5" unicode="&#x642;" horiz-adv-x="832" arabic-form="isolated" 
d="M659 130v89q0 86 -79 86q-43 0 -65.5 -25.5t-22.5 -69.5q0 -102 90 -102q42 0 77 22zM403 -112q116 0 182 35.5t73 100.5q-42 -24 -97 -24q-82 0 -132.5 56t-50.5 153q0 92 53.5 147.5t145.5 55.5q90 0 142 -48.5t52 -145.5v-178q0 -130 -96 -195t-273 -65
q-172 0 -265 64.5t-93 189.5q0 87 48 181q9 17 16.5 21t24.5 -2l48 -22q14 -6 16.5 -13.5t-4.5 -23.5q-35 -72 -35 -133q0 -154 245 -154zM514 522q-25 0 -41.5 15t-16.5 39t16.5 39.5t41.5 15.5q24 0 40.5 -15.5t16.5 -39.5t-16 -39t-41 -15zM661 522q-25 0 -41.5 15
t-16.5 39t16.5 39.5t41.5 15.5q24 0 40.5 -15.5t16.5 -39.5t-16 -39t-41 -15z" />
    <glyph glyph-name="uniFED6" unicode="&#x642;" horiz-adv-x="867" arabic-form="final" 
d="M402 -220q-172 0 -265 64.5t-93 189.5q0 87 48 181q9 17 16.5 21t24.5 -2l48 -22q14 -6 16.5 -13.5t-4.5 -23.5q-35 -72 -35 -133q0 -154 245 -154q104 0 168.5 29t81.5 83h-71q-204 0 -204 209q0 92 53.5 147.5t145.5 55.5q90 0 142 -48.5t52 -145.5v-108h96v-110h-99
q-14 -109 -109 -164.5t-257 -55.5zM600 110h59v109q0 86 -79 86q-43 0 -65.5 -25.5t-22.5 -69.5q0 -58 24.5 -79t83.5 -21zM514 522q-25 0 -41.5 15t-16.5 39t16.5 39.5t41.5 15.5q24 0 40.5 -15.5t16.5 -39.5t-16 -39t-41 -15zM661 522q-25 0 -41.5 15t-16.5 39t16.5 39.5
t41.5 15.5q24 0 40.5 -15.5t16.5 -39.5t-16 -39t-41 -15z" />
    <glyph glyph-name="uniFED7" unicode="&#x642;" horiz-adv-x="521" arabic-form="initial" 
d="M-10 110h116q-31 50 -31 113q0 84 52.5 136.5t145.5 52.5q92 0 144.5 -53t52.5 -150q0 -103 -57 -156t-161 -53h-262q-32 0 -32 55t32 55zM221 110h43q42 0 67 23.5t25 73.5q0 99 -83 99q-84 0 -84 -99q0 -57 32 -97zM198 522q-25 0 -41.5 15t-16.5 39t16.5 39.5
t41.5 15.5q24 0 40.5 -15.5t16.5 -39.5t-16 -39t-41 -15zM345 522q-25 0 -41.5 15t-16.5 39t16.5 39.5t41.5 15.5q24 0 40.5 -15.5t16.5 -39.5t-16 -39t-41 -15z" />
    <glyph glyph-name="uniFED8" unicode="&#x642;" horiz-adv-x="517" arabic-form="medial" 
d="M-10 110h71q52 0 76 3q-83 68 -83 155q0 69 55.5 117t147.5 48q93 0 149 -48t56 -117q0 -87 -83 -155q24 -3 76 -3h62v-110h-62q-110 0 -198 34q-86 -34 -196 -34h-71q-32 0 -32 55t32 55zM258 141q44 23 66.5 55t22.5 60q0 31 -23 50.5t-66 19.5t-66 -19.5t-23 -50.5
q0 -28 22.5 -60t66.5 -55zM188 540q-25 0 -41.5 15t-16.5 39t16.5 39.5t41.5 15.5q24 0 40.5 -15.5t16.5 -39.5t-16 -39t-41 -15zM335 540q-25 0 -41.5 15t-16.5 39t16.5 39.5t41.5 15.5q24 0 40.5 -15.5t16.5 -39.5t-16 -39t-41 -15z" />
    <glyph glyph-name="uniFED9" unicode="&#x643;" horiz-adv-x="905" arabic-form="isolated" 
d="M314 110h367q29 0 38 10t9 41v519q0 21 19 24l72 10q10 1 15.5 -4.5t5.5 -16.5v-568q0 -125 -147 -125h-403q-117 0 -179 55.5t-62 155.5v117q0 23 25 23h63q25 0 25 -23v-68q0 -83 33 -116.5t119 -33.5zM348 385h29q-18 26 -18 58q0 41 29 66.5t72 25.5q42 0 78 -23
q14 -10 7 -21l-10 -25q-6 -14 -17 -7q-28 14 -51 14q-19 0 -31 -12t-12 -32q0 -22 16 -44h102q14 0 14 -14v-34q0 -14 -14 -14h-194q-14 0 -14 15v33q0 14 14 14z" />
    <glyph glyph-name="uniFEDA" unicode="&#x643;" horiz-adv-x="948" arabic-form="final" 
d="M821 51q-33 -51 -128 -51h-403q-117 0 -179 55.5t-62 155.5v117q0 23 25 23h62q25 0 25 -23v-68q0 -83 33 -116.5t119 -33.5h368q29 0 38 10t9 41v519q0 21 19 24l72 10q10 1 15.5 -4.5t5.5 -16.5v-554q30 -29 102 -29h6v-110h-6q-81 0 -121 51zM348 385h29
q-18 26 -18 58q0 41 29 66.5t72 25.5q42 0 78 -23q14 -10 7 -21l-10 -25q-6 -14 -17 -7q-28 14 -51 14q-19 0 -31 -12t-12 -32q0 -22 16 -44h102q14 0 14 -14v-34q0 -14 -14 -14h-194q-14 0 -14 15v33q0 14 14 14z" />
    <glyph glyph-name="uniFEDB" unicode="&#x643;" horiz-adv-x="463" arabic-form="initial" 
d="M201 0h-211q-32 0 -32 54q0 56 32 56h218q87 0 87 53q0 46 -75 98.5t-223 94.5q-22 7 -22 24v47q0 16 14 26l293 255q21 18 35 2l37 -42q16 -19 -1 -35l-239 -208q150 -57 223 -123.5t73 -150.5q0 -45 -18.5 -76t-51 -46.5t-66 -22t-73.5 -6.5z" />
    <glyph glyph-name="uniFEDC" unicode="&#x643;" horiz-adv-x="519" arabic-form="medial" 
d="M201 0h-211q-32 0 -32 54q0 56 32 56h218q87 0 87 53q0 46 -75 98.5t-223 94.5q-22 7 -22 24v47q0 16 14 26l293 255q21 18 35 2l37 -42q16 -19 -1 -35l-239 -208q150 -57 223 -123.5t73 -150.5q0 -6 -2 -20q29 -21 95 -21h16v-110h-16q-87 0 -127 56q-51 -56 -175 -56z
" />
    <glyph glyph-name="uniFEDD" unicode="&#x644;" horiz-adv-x="666" arabic-form="isolated" 
d="M600 694v-648q0 -129 -72.5 -197.5t-207.5 -68.5q-130 0 -203.5 63.5t-73.5 188.5q0 83 41 163q8 16 15.5 20t22.5 -2l47 -21q14 -5 17 -12.5t-3 -24.5q-26 -62 -26 -122q0 -145 166 -145q85 0 125 39.5t40 120.5v633q0 20 17 23l76 10q9 1 14 -4t5 -16z" />
    <glyph glyph-name="uniFEDE" unicode="&#x644;" horiz-adv-x="703" arabic-form="final" 
d="M600 694v-584h103v-110h-106q-12 -107 -83.5 -163.5t-193.5 -56.5q-130 0 -203.5 63.5t-73.5 188.5q0 83 41 163q8 16 15.5 20t22.5 -2l47 -21q14 -5 17 -12.5t-3 -24.5q-26 -62 -26 -122q0 -145 166 -145q85 0 125 39.5t40 120.5v633q0 20 17 23l76 10q9 1 14 -4t5 -16z
" />
    <glyph glyph-name="uniFEDF" unicode="&#x644;" horiz-adv-x="303" arabic-form="initial" 
d="M-10 110h88q29 0 38.5 10t9.5 41v519q0 21 19 24l72 10q10 1 15.5 -4.5t5.5 -16.5v-568q0 -125 -149 -125h-99q-32 0 -32 55t32 55z" />
    <glyph glyph-name="uniFEE0" unicode="&#x644;" horiz-adv-x="358" arabic-form="medial" 
d="M-10 110h98q29 0 38.5 10t9.5 41v519q0 21 19 24l72 10q10 1 15.5 -4.5t5.5 -16.5v-554q32 -29 104 -29h6v-110h-6q-84 0 -123 50q-33 -50 -130 -50h-109q-32 0 -32 55t32 55z" />
    <glyph glyph-name="uniFEE1" unicode="&#x645;" horiz-adv-x="614" arabic-form="isolated" 
d="M30 -62q0 87 42 128.5t126 43.5q-32 50 -32 113q0 84 52.5 136.5t145.5 52.5t145.5 -53t52.5 -150q0 -103 -57 -156t-161 -53h-98q-61 0 -81 -14.5t-20 -55.5q0 -68 26 -184q6 -28 -23 -33l-55 -7q-18 -2 -24.5 3t-10.5 24q-28 128 -28 205zM447 206q0 99 -83 99
q-44 0 -63.5 -28t-19.5 -71q0 -57 33 -96h41q92 0 92 96z" />
    <glyph glyph-name="uniFEE2" unicode="&#x645;" horiz-adv-x="637" arabic-form="final" 
d="M562 209q0 -59 -29 -99h104v-110h-391q-61 0 -81.5 -14.5t-20.5 -55.5q0 -63 27 -184q6 -28 -23 -33l-55 -7q-18 -2 -24.5 3t-10.5 24q-28 128 -28 205q0 87 42 128.5t126 43.5q-32 50 -32 113q0 84 52.5 136.5t145.5 52.5t145.5 -53t52.5 -150zM448 206q0 43 -20 71
t-64 28t-64 -28.5t-20 -70.5q0 -56 34 -96h41q42 0 67.5 23.5t25.5 72.5z" />
    <glyph glyph-name="uniFEE3" unicode="&#x645;" horiz-adv-x="521" arabic-form="initial" 
d="M-10 110h116q-31 50 -31 113q0 84 52.5 136.5t145.5 52.5q92 0 144.5 -53t52.5 -150q0 -103 -57 -156t-161 -53h-262q-32 0 -32 55t32 55zM221 110h43q42 0 67 23.5t25 73.5q0 99 -83 99q-84 0 -84 -99q0 -57 32 -97z" />
    <glyph glyph-name="uniFEE4" unicode="&#x645;" horiz-adv-x="556" arabic-form="medial" 
d="M-10 110h90v19q0 84 52.5 136t145.5 52t145 -52.5t52 -149.5v-5h81v-110h-107q-51 -94 -192 -94h-62q-23 0 -33.5 5.5t-21.5 23.5q-22 35 -34 65h-116q-32 0 -32 55t32 55zM222 16h47q42 0 67 23.5t25 73.5q0 97 -83 97q-84 0 -84 -97q0 -50 28 -97z" />
    <glyph glyph-name="uniFEE5" unicode="&#x646;" horiz-adv-x="666" arabic-form="isolated" 
d="M603 299v-255q0 -129 -71.5 -196.5t-208.5 -67.5q-130 0 -203.5 63.5t-73.5 188.5q0 81 40 163q9 16 16 20t23 -2l47 -21q24 -10 14 -37q-26 -62 -26 -122q0 -72 42.5 -109t123.5 -37q85 0 125 40t40 121v251q0 23 24 23h64q24 0 24 -23zM349 401q-25 0 -41 15t-16 39
t16.5 39.5t40.5 15.5q25 0 41.5 -15.5t16.5 -39.5t-16.5 -39t-41.5 -15z" />
    <glyph glyph-name="uniFEE6" unicode="&#x646;" horiz-adv-x="686" arabic-form="final" 
d="M601 0v3q-11 -109 -81.5 -166t-196.5 -57q-130 0 -203.5 63.5t-73.5 188.5q0 81 40 163q9 16 16 20t23 -2l47 -21q24 -10 14 -37q-26 -62 -26 -122q0 -72 42.5 -109t123.5 -37q85 0 125 40t40 121v251q0 23 24 23h64q24 0 24 -23v-189h83v-110h-85zM349 401q-25 0 -41 15
t-16 39t16.5 39.5t40.5 15.5q25 0 41.5 -15.5t16.5 -39.5t-16.5 -39t-41.5 -15z" />
    <glyph glyph-name="uniFEE7" unicode="&#x646;" horiz-adv-x="304" arabic-form="initial" 
d="M-10 110h88q29 0 38.5 10t9.5 41v226q0 25 26 25h60q26 0 26 -25v-262q0 -125 -149 -125h-99q-32 0 -32 55t32 55zM174 532q-25 0 -41 15t-16 39t16.5 39.5t40.5 15.5q25 0 41.5 -15.5t16.5 -39.5t-16.5 -39t-41.5 -15z" />
    <glyph glyph-name="uniFEE8" unicode="&#x646;" horiz-adv-x="358" arabic-form="medial" 
d="M99 0h-109q-32 0 -32 55t32 55h98q29 0 38.5 10t9.5 41v226q0 25 26 25h60q26 0 26 -25v-248q32 -29 104 -29h6v-110h-6q-84 0 -123 50q-33 -50 -130 -50zM180 532q-25 0 -41 15t-16 39t16.5 39.5t40.5 15.5q25 0 41.5 -15.5t16.5 -39.5t-16.5 -39t-41.5 -15z" />
    <glyph glyph-name="uniFEE9" unicode="&#x647;" horiz-adv-x="790" arabic-form="isolated" 
d="M464 274q0 30 -29 50.5t-64 20.5q-30 0 -49.5 -17t-19.5 -47q0 -61 79 -115q41 23 62 52t21 56zM564 98q57 0 57 44q0 50 -66 114v-1q1 -5 1 -12q0 -63 -73 -129q45 -16 81 -16zM269 402l-38 15q-26 10 -16 29l25 47q9 19 29 13q222 -63 344 -171.5t122 -212.5
q0 -61 -41.5 -93.5t-113.5 -32.5q-97 0 -200 53q-115 -49 -275 -49h-42q-23 0 -23 24v61q0 25 23 25h48q90 0 160 16q-73 75 -73 156q0 35 22 69t48 50z" />
    <glyph glyph-name="uniFEEA" unicode="&#x647;" horiz-adv-x="523" arabic-form="final" 
d="M424 477v-304q0 -34 15 -48.5t55 -14.5h29v-110h-36q-124 0 -161 70q-49 -20 -110 -20q-72 0 -121 33t-49 102q0 68 62.5 132.5t203.5 112.5v33q0 22 18 25l72 9q22 3 22 -20zM160 202q0 -45 69 -45q37 0 83 16v156q-70 -25 -111 -58t-41 -69z" />
    <glyph glyph-name="uniFEEB" unicode="&#x647;" horiz-adv-x="710" arabic-form="initial" 
d="M384 274q0 30 -29 50.5t-64 20.5q-30 0 -49.5 -17t-19.5 -47q0 -61 79 -115q41 23 62 52t21 56zM484 98q57 0 57 44q0 50 -66 114v-1q1 -5 1 -12q0 -63 -73 -129q45 -16 81 -16zM25 0h-35q-32 0 -32 55t32 55h41q90 0 160 16q-73 75 -73 156q0 35 22 69t48 50l1 1l-38 15
q-26 10 -16 29l25 47q9 19 29 13q222 -63 344 -171.5t122 -212.5q0 -61 -41.5 -93.5t-113.5 -32.5q-97 0 -200 53q-115 -49 -275 -49z" />
    <glyph glyph-name="uniFEEC" unicode="&#x647;" horiz-adv-x="606" arabic-form="medial" 
d="M23 0h-33q-32 0 -32 55t32 55h33q60 0 93 4q16 146 84 231t162 85q70 0 114 -43t44 -107q0 -49 -34 -95t-92 -71v-1q50 -3 179 -3h33v-110h-33q-67 0 -140 14v-1q41 -25 69 -66t28 -80q0 -67 -49 -112t-121 -45q-89 0 -159 77t-86 219q-64 -6 -92 -6zM364 -182
q24 0 40.5 16t16.5 40q0 39 -49 80.5t-146 61.5q4 -76 42 -137t96 -61zM228 119q91 21 134.5 65t43.5 86q0 24 -13.5 38t-34.5 14q-49 0 -82.5 -56t-47.5 -147z" />
    <glyph glyph-name="uniFEED" unicode="&#x648;" horiz-adv-x="508" arabic-form="isolated" 
d="M332 130v89q0 86 -79 86q-43 0 -65.5 -25.5t-22.5 -69.5q0 -102 90 -102q42 0 77 22zM317 18q-39 -18 -83 -18q-82 0 -132.5 56t-50.5 153q0 92 53.5 147.5t145.5 55.5q90 0 142 -48.5t52 -145.5v-97q0 -133 -45 -201.5t-191 -141.5q-21 -11 -33 11l-28 51q-10 20 17 34
q70 37 104.5 68.5t48.5 75.5z" />
    <glyph glyph-name="uniFEEE" unicode="&#x648;" horiz-adv-x="544" arabic-form="final" 
d="M208 -222q-21 -11 -33 11l-28 51q-10 20 17 34q63 34 96.5 62t49.5 64h-55q-204 0 -204 209q0 92 53.5 147.5t145.5 55.5q90 0 142 -48.5t52 -145.5v-108h100v-110h-111q-17 -68 -67 -117.5t-158 -104.5zM273 110h59v109q0 86 -79 86q-43 0 -65.5 -25.5t-22.5 -69.5
q0 -58 24.5 -79t83.5 -21z" />
    <glyph glyph-name="uniFEEF" unicode="&#x649;" horiz-adv-x="854" arabic-form="isolated" 
d="M743 296q-73 37 -137 37q-51 0 -79.5 -23t-28.5 -57q0 -29 24 -53t91 -60q70 -38 108 -73.5t38 -84.5q0 -89 -99 -145.5t-259 -56.5q-172 0 -265 64.5t-93 189.5q0 87 48 181q9 17 16.5 21t24.5 -2l48 -22q14 -6 16.5 -13.5t-4.5 -23.5q-35 -72 -35 -133q0 -154 245 -154
q106 0 174.5 26.5t68.5 61.5q0 19 -24 37.5t-74 46.5q-36 21 -59 36.5t-50 39.5t-40.5 52.5t-13.5 61.5q0 90 63.5 140t156.5 50t176 -50q26 -15 17 -35l-23 -52q-8 -19 -31 -7z" />
    <glyph glyph-name="uniFEF0" unicode="&#x649;" horiz-adv-x="776" arabic-form="final" 
d="M402 -112q112 0 179 24t67 57q0 35 -99 69l-93 32q-23 8 -16 32l16 51q9 29 37 19l58 -20q120 -42 205 -42h20v-110h-24q10 -17 10 -36q0 -79 -100 -131.5t-261 -52.5q-172 0 -265 64.5t-93 189.5q0 87 48 181q9 17 16.5 21t24.5 -2l48 -22q14 -6 16.5 -13.5t-4.5 -23.5
q-35 -72 -35 -133q0 -154 245 -154z" />
    <glyph glyph-name="uniFEF1" unicode="&#x64a;" horiz-adv-x="854" arabic-form="isolated" 
d="M743 296q-73 37 -137 37q-51 0 -79.5 -23t-28.5 -57q0 -29 24 -53t91 -60q70 -38 108 -73.5t38 -84.5q0 -89 -99 -145.5t-259 -56.5q-172 0 -265 64.5t-93 189.5q0 87 48 181q9 17 16.5 21t24.5 -2l48 -22q14 -6 16.5 -13.5t-4.5 -23.5q-35 -72 -35 -133q0 -154 245 -154
q106 0 174.5 26.5t68.5 61.5q0 19 -24 37.5t-74 46.5q-36 21 -59 36.5t-50 39.5t-40.5 52.5t-13.5 61.5q0 90 63.5 140t156.5 50t176 -50q26 -15 17 -35l-23 -52q-8 -19 -31 -7zM343 -439q-25 0 -41.5 15t-16.5 39t16.5 39.5t41.5 15.5q24 0 40.5 -15.5t16.5 -39.5t-16 -39
t-41 -15zM490 -439q-25 0 -41.5 15t-16.5 39t16.5 39.5t41.5 15.5q24 0 40.5 -15.5t16.5 -39.5t-16 -39t-41 -15z" />
    <glyph glyph-name="uniFEF2" unicode="&#x64a;" horiz-adv-x="776" arabic-form="final" 
d="M402 -112q112 0 179 24t67 57q0 35 -99 69l-93 32q-23 8 -16 32l16 51q9 29 37 19l58 -20q120 -42 205 -42h20v-110h-24q10 -17 10 -36q0 -79 -100 -131.5t-261 -52.5q-172 0 -265 64.5t-93 189.5q0 87 48 181q9 17 16.5 21t24.5 -2l48 -22q14 -6 16.5 -13.5t-4.5 -23.5
q-35 -72 -35 -133q0 -154 245 -154zM343 -439q-25 0 -41.5 15t-16.5 39t16.5 39.5t41.5 15.5q24 0 40.5 -15.5t16.5 -39.5t-16 -39t-41 -15zM490 -439q-25 0 -41.5 15t-16.5 39t16.5 39.5t41.5 15.5q24 0 40.5 -15.5t16.5 -39.5t-16 -39t-41 -15z" />
    <glyph glyph-name="uniFEF3" unicode="&#x64a;" horiz-adv-x="304" arabic-form="initial" 
d="M-10 110h88q29 0 38.5 10t9.5 41v226q0 25 26 25h60q26 0 26 -25v-262q0 -125 -149 -125h-99q-32 0 -32 55t32 55zM3 -229q-25 0 -41.5 15t-16.5 39t16.5 39.5t41.5 15.5q24 0 40.5 -15.5t16.5 -39.5t-16 -39t-41 -15zM150 -229q-25 0 -41.5 15t-16.5 39t16.5 39.5
t41.5 15.5q24 0 40.5 -15.5t16.5 -39.5t-16 -39t-41 -15z" />
    <glyph glyph-name="uniFEF4" unicode="&#x64a;" horiz-adv-x="358" arabic-form="medial" 
d="M99 0h-109q-32 0 -32 55t32 55h98q29 0 38.5 10t9.5 41v226q0 25 26 25h60q26 0 26 -25v-248q32 -29 104 -29h6v-110h-6q-84 0 -123 50q-33 -50 -130 -50zM13 -229q-25 0 -41.5 15t-16.5 39t16.5 39.5t41.5 15.5q24 0 40.5 -15.5t16.5 -39.5t-16 -39t-41 -15zM160 -229
q-25 0 -41.5 15t-16.5 39t16.5 39.5t41.5 15.5q24 0 40.5 -15.5t16.5 -39.5t-16 -39t-41 -15z" />
    <glyph glyph-name=".notdef" horiz-adv-x="535" 
d="M20 0v693h495v-693h-495zM268 391l168 253h-337zM297 347l169 -253v505zM99 50h337l-168 252zM70 599v-505l168 253z" />
    <glyph glyph-name=".null" 
 />
    <glyph glyph-name="nonmarkingreturn" horiz-adv-x="333" 
 />
    <glyph glyph-name="CR" horiz-adv-x="242" 
 />
    <glyph glyph-name="uni060C" unicode="&#x60c;" horiz-adv-x="337" 
d="M225 301l13 -15q9 -12 -3 -24q-60 -60 -60 -106q0 -17 23 -47.5t23 -51.5q0 -30 -21.5 -50t-51.5 -20q-38 0 -60 27.5t-22 72.5q0 52 35 111.5t92 103.5q19 15 32 -1z" />
    <glyph glyph-name="uni0615" unicode="&#x615;" 
d="M-27 767v-105q39 29 72 29q78 0 78 -85q0 -47 -21 -65t-77 -18h-135q-11 0 -11 12v33q0 12 11 12h19v179q0 12 12 15l35 7q17 4 17 -14zM-27 580h62q15 0 21.5 6t6.5 22q0 29 -31 29q-30 0 -59 -30v-27z" />
    <glyph glyph-name="uni061B" unicode="&#x61b;" horiz-adv-x="337" 
d="M225 573l13 -15q9 -12 -3 -24q-60 -60 -60 -106q0 -17 23 -47.5t23 -51.5q0 -30 -21.5 -50t-51.5 -20q-38 0 -60 27.5t-22 72.5q0 52 35 111.5t92 103.5q19 15 32 -1zM215 56q0 -31 -22 -50t-50 -19t-50 19t-22 50t22 50t50 19t50 -19t22 -50z" />
    <glyph glyph-name="uni061F" unicode="&#x61f;" horiz-adv-x="519" 
d="M66 489q0 77 55 123t133 46q84 0 162 -42q9 -4 9 -14q0 -3 -2 -9l-18 -49q-5 -15 -21 -7q-53 29 -106 29q-44 0 -72 -22.5t-28 -60.5q0 -42 46 -88l73 -73q53 -53 53 -127q0 -34 -21 -34h-63q-15 0 -15 15q0 33 -10.5 54.5t-36.5 47.5l-75 77q-63 65 -63 134zM362 50
q0 -29 -20.5 -46t-47.5 -17t-47.5 17t-20.5 46t20.5 46t47.5 17t47.5 -17t20.5 -46z" />
    <glyph glyph-name="uni0621" unicode="&#x621;" horiz-adv-x="506" 
d="M297 237q-32 0 -48 -16.5t-16 -42.5q0 -42 30 -76h171q21 0 21 -24v-55q0 -23 -22 -23h-362q-20 0 -20 23v55q0 24 20 24h82q-32 45 -32 96q0 63 45 102t110 39q70 0 120 -34q16 -10 9 -28l-21 -49q-7 -17 -23 -9q-36 18 -64 18z" />
    <glyph glyph-name="uni0622" unicode="&#x622;" horiz-adv-x="242" 
d="M151 0h-60q-26 0 -26 25v655q0 21 19 24l72 10q10 1 15.5 -4.5t5.5 -16.5v-668q0 -25 -26 -25zM58 906q28 0 64 -19q42 -19 62 -19q23 0 41 24q9 10 15 1l20 -24q7 -9 0 -18q-35 -52 -76 -52q-28 0 -64 19q-42 20 -63 20q-23 0 -41 -24q-9 -10 -15 -1l-20 23q-7 9 0 19
q32 51 77 51z" />
    <glyph glyph-name="uni0623" unicode="&#x623;" horiz-adv-x="242" 
d="M151 0h-60q-26 0 -26 25v655q0 21 19 24l72 10q10 1 15.5 -4.5t5.5 -16.5v-668q0 -25 -26 -25zM24 861h29q-18 26 -18 58q0 41 29 66.5t72 25.5q42 0 78 -23q14 -10 7 -21l-10 -25q-6 -14 -17 -7q-28 14 -51 14q-19 0 -31 -12t-12 -32q0 -22 16 -44h102q14 0 14 -14v-34
q0 -14 -14 -14h-194q-14 0 -14 15v33q0 14 14 14z" />
    <glyph glyph-name="uni0624" unicode="&#x624;" horiz-adv-x="508" 
d="M332 130v89q0 86 -79 86q-43 0 -65.5 -25.5t-22.5 -69.5q0 -102 90 -102q42 0 77 22zM317 18q-39 -18 -83 -18q-82 0 -132.5 56t-50.5 153q0 92 53.5 147.5t145.5 55.5q90 0 142 -48.5t52 -145.5v-97q0 -133 -45 -201.5t-191 -141.5q-21 -11 -33 11l-28 51q-10 20 17 34
q70 37 104.5 68.5t48.5 75.5zM151 585h29q-18 26 -18 58q0 41 29 66.5t72 25.5q42 0 78 -23q14 -10 7 -21l-10 -25q-6 -14 -17 -7q-28 14 -51 14q-19 0 -31 -12t-12 -32q0 -22 16 -44h102q14 0 14 -14v-34q0 -14 -14 -14h-194q-14 0 -14 15v33q0 14 14 14z" />
    <glyph glyph-name="uni0625" unicode="&#x625;" horiz-adv-x="242" 
d="M151 0h-60q-26 0 -26 25v655q0 21 19 24l72 10q10 1 15.5 -4.5t5.5 -16.5v-668q0 -25 -26 -25zM24 -260h29q-18 29 -18 59q0 40 29 65.5t72 25.5q42 0 78 -23q13 -10 7 -21l-10 -25q-6 -13 -17 -7q-28 14 -51 14q-19 0 -31 -12t-12 -32q0 -21 16 -44h102q14 0 14 -14v-34
q0 -14 -14 -14h-194q-14 0 -14 15v33q0 8 3 11t11 3z" />
    <glyph glyph-name="uni0626" unicode="&#x626;" horiz-adv-x="854" 
d="M743 296q-73 37 -137 37q-51 0 -79.5 -23t-28.5 -57q0 -29 24 -53t91 -60q70 -38 108 -73.5t38 -84.5q0 -89 -99 -145.5t-259 -56.5q-172 0 -265 64.5t-93 189.5q0 87 48 181q9 17 16.5 21t24.5 -2l48 -22q14 -6 16.5 -13.5t-4.5 -23.5q-35 -72 -35 -133q0 -154 245 -154
q106 0 174.5 26.5t68.5 61.5q0 19 -24 37.5t-74 46.5q-36 21 -59 36.5t-50 39.5t-40.5 52.5t-13.5 61.5q0 90 63.5 140t156.5 50t176 -50q26 -15 17 -35l-23 -52q-8 -19 -31 -7zM39 416h29q-18 26 -18 58q0 41 29 66.5t72 25.5q42 0 78 -23q14 -10 7 -21l-10 -25
q-6 -14 -17 -7q-28 14 -51 14q-19 0 -31 -12t-12 -32q0 -22 16 -44h102q14 0 14 -14v-34q0 -14 -14 -14h-194q-14 0 -14 15v33q0 14 14 14z" />
    <glyph glyph-name="uni0627" unicode="&#x627;" horiz-adv-x="242" 
d="M151 0h-60q-26 0 -26 25v655q0 21 19 24l72 10q10 1 15.5 -4.5t5.5 -16.5v-668q0 -25 -26 -25z" />
    <glyph glyph-name="uni0628" unicode="&#x628;" horiz-adv-x="910" 
d="M696 0h-401q-120 0 -183 55.5t-63 155.5v115q0 25 26 25h60q26 0 26 -25v-66q0 -83 34 -116.5t123 -33.5h367q29 0 38.5 10t9.5 41v226q0 25 26 25h60q26 0 26 -25v-262q0 -125 -149 -125zM453 -229q-25 0 -41 15t-16 40q0 24 16 39t41 15t41.5 -15t16.5 -39
q0 -25 -16.5 -40t-41.5 -15z" />
    <glyph glyph-name="uni0629" unicode="&#x629;" horiz-adv-x="516" 
d="M258 -10q-95 0 -150.5 55t-55.5 153q0 92 54.5 162t151.5 70t151.5 -70t54.5 -162q0 -98 -55.5 -153t-150.5 -55zM258 322q-46 0 -69 -38t-23 -87q0 -44 23 -71.5t69 -27.5t69 27.5t23 71.5q0 49 -23 87t-69 38zM193 540q-25 0 -41.5 15t-16.5 39t16.5 39.5t41.5 15.5
q24 0 40.5 -15.5t16.5 -39.5t-16 -39t-41 -15zM340 540q-25 0 -41.5 15t-16.5 39t16.5 39.5t41.5 15.5q24 0 40.5 -15.5t16.5 -39.5t-16 -39t-41 -15z" />
    <glyph glyph-name="uni062A" unicode="&#x62a;" horiz-adv-x="910" 
d="M696 0h-401q-120 0 -183 55.5t-63 155.5v115q0 25 26 25h60q26 0 26 -25v-66q0 -83 34 -116.5t123 -33.5h367q29 0 38.5 10t9.5 41v226q0 25 26 25h60q26 0 26 -25v-262q0 -125 -149 -125zM381 473q-25 0 -41.5 15t-16.5 39t16.5 39.5t41.5 15.5q24 0 40.5 -15.5
t16.5 -39.5t-16 -39t-41 -15zM528 473q-25 0 -41.5 15t-16.5 39t16.5 39.5t41.5 15.5q24 0 40.5 -15.5t16.5 -39.5t-16 -39t-41 -15z" />
    <glyph glyph-name="uni062B" unicode="&#x62b;" horiz-adv-x="910" 
d="M696 0h-401q-120 0 -183 55.5t-63 155.5v115q0 25 26 25h60q26 0 26 -25v-66q0 -83 34 -116.5t123 -33.5h367q29 0 38.5 10t9.5 41v226q0 25 26 25h60q26 0 26 -25v-262q0 -125 -149 -125zM450 600q-25 0 -41 14.5t-16 39.5q0 24 16 39t41 15t41.5 -15t16.5 -39
q0 -25 -16.5 -39.5t-41.5 -14.5zM377 473q-25 0 -41.5 15t-16.5 39t16.5 39.5t41.5 15.5q24 0 40.5 -15.5t16.5 -39.5t-16 -39t-41 -15zM524 473q-25 0 -41.5 15t-16.5 39t16.5 39.5t41.5 15.5q24 0 40.5 -15.5t16.5 -39.5t-16 -39t-41 -15z" />
    <glyph glyph-name="uni062C" unicode="&#x62c;" horiz-adv-x="577" 
d="M495 -149q0 -25 -17 -40.5t-42 -15.5t-42 15.5t-17 40.5t17 40.5t42 15.5t42 -15.5t17 -40.5zM520 0h-230q-75 0 -108.5 -21t-33.5 -66q0 -44 38.5 -69.5t108.5 -25.5h12q18 0 25 -6.5t7 -21.5v-39q0 -21 -4 -27.5t-19 -9.5q-19 -4 -43 -4q-105 0 -172 53t-67 151
q0 196 259 196h113q-30 31 -46 103q-13 60 -38.5 85t-72.5 25q-51 0 -115 -37q-13 -6 -19 -4.5t-11 13.5l-23 54q-7 15 10 28q81 53 168 53q89 0 139.5 -48t72.5 -145q17 -79 52 -110q20 -19 20 -38v-63q0 -26 -23 -26z" />
    <glyph glyph-name="uni062D" unicode="&#x62d;" horiz-adv-x="577" 
d="M520 0h-235q-71 0 -103.5 -21t-32.5 -66q0 -47 40 -71.5t109 -24.5q68 0 157 27q17 4 22.5 1.5t9.5 -14.5l18 -49q9 -26 -19 -37q-80 -35 -191 -35q-126 0 -193.5 52.5t-67.5 151.5q0 196 255 196h117q-30 31 -46 103q-13 60 -38.5 85t-72.5 25q-51 0 -115 -37
q-13 -6 -19 -4.5t-11 13.5l-23 54q-7 15 10 28q81 53 168 53q89 0 139.5 -48t72.5 -145q17 -79 52 -110q20 -19 20 -38v-63q0 -26 -23 -26z" />
    <glyph glyph-name="uni062E" unicode="&#x62e;" horiz-adv-x="577" 
d="M520 0h-235q-71 0 -103.5 -21t-32.5 -66q0 -47 40 -71.5t109 -24.5q68 0 157 27q17 4 22.5 1.5t9.5 -14.5l18 -49q9 -26 -19 -37q-80 -35 -191 -35q-126 0 -193.5 52.5t-67.5 151.5q0 196 255 196h117q-30 31 -46 103q-13 60 -38.5 85t-72.5 25q-51 0 -115 -37
q-13 -6 -19 -4.5t-11 13.5l-23 54q-7 15 10 28q81 53 168 53q89 0 139.5 -48t72.5 -145q17 -79 52 -110q20 -19 20 -38v-63q0 -26 -23 -26zM274 540q-25 0 -41 15t-16 39t16.5 39.5t40.5 15.5q25 0 41.5 -15.5t16.5 -39.5t-16.5 -39t-41.5 -15z" />
    <glyph glyph-name="uni062F" unicode="&#x62f;" horiz-adv-x="543" 
d="M112 408q52 22 139 22q120 0 177.5 -51t57.5 -167v-87q0 -125 -146 -125h-283q-24 0 -24 25v60q0 25 24 25h260q35 0 46 11.5t11 45.5v40q0 64 -31 90t-104 26q-24 0 -65.5 -5t-56.5 -5q-21 0 -21 22v47q0 19 16 26z" />
    <glyph glyph-name="uni0630" unicode="&#x630;" horiz-adv-x="543" 
d="M112 408q52 22 139 22q120 0 177.5 -51t57.5 -167v-87q0 -125 -146 -125h-283q-24 0 -24 25v60q0 25 24 25h260q35 0 46 11.5t11 45.5v40q0 64 -31 90t-104 26q-24 0 -65.5 -5t-56.5 -5q-21 0 -21 22v47q0 19 16 26zM255 540q-25 0 -41 15t-16 39t16.5 39.5t40.5 15.5
q25 0 41.5 -15.5t16.5 -39.5t-16.5 -39t-41.5 -15z" />
    <glyph glyph-name="uni0631" unicode="&#x631;" horiz-adv-x="322" 
d="M257 387v-274q0 -129 -41.5 -196t-165.5 -133q-21 -12 -33 11l-28 51q-10 19 17 34q83 47 111 95.5t28 150.5v261q0 25 26 25h60q26 0 26 -25z" />
    </font>
</defs>
</svg>
